<svg xmlns="http://www.w3.org/2000/svg" xmlns:xlink="http://www.w3.org/1999/xlink" version="1.1" style="" xml:space="preserve" width="256" height="256"><rect id="backgroundrect" width="100%" height="100%" x="0" y="0" fill="none" stroke="none" class="" style=""/>





























<g class="currentLayer" style=""><title>Layer 1</title><g id="svg_21">
</g><g id="svg_22">
</g><g id="svg_23">
</g><g id="svg_24">
</g><g id="svg_25">
</g><g id="svg_26">
</g><g id="svg_27">
</g><g id="svg_28">
</g><g id="svg_29">
</g><g id="svg_30">
</g><g id="svg_31">
</g><g id="svg_32">
</g><g id="svg_33">
</g><g id="svg_34">
</g><g id="svg_35">
</g><g class=""><path style="fill:#FF757C;" d="M130.0000024115642,223.33333978744983 c51.03978828553561,0 92.66666998409325,-41.628691594455766 92.66666998409325,-92.66666998409325 C222.66667239565743,79.62688151782096 181.0397906970998,37.99999981926332 130.0000024115642,37.99999981926332 S37.33333242747093,79.62869141371908 37.33333242747093,130.66666980335657 S78.9620240219267,223.33333978744983 130.0000024115642,223.33333978744983 z" id="svg_1" class=""/><path style="fill:#0E7886;" d="M130.0000024115642,84.20447022336332 c45.29662662159958,0 82.01326074853915,36.71808204365807 82.01326074853915,82.01326074853915 c0,2.844070414316487 -0.14551563020939687,5.652666869029687 -0.4264114735986798,8.4214456139841 C195.9261844591929,203.63334689469863 165.26546200738568,223.33333978744983 130.0000024115642,223.33333978744983 S64.07526828065397,203.63515679059674 48.4146010533422,174.6409864817847 c-0.2827057392874098,-2.7687787449544112 -0.42785939031718084,-5.57918509556574 -0.42785939031718084,-8.4228935307026 C47.98674166302502,120.9211043503029 84.70663360258122,84.20447022336332 130.0000024115642,84.20447022336332 z" id="svg_2" class=""/><path style="fill:#15BDB1;" d="M181.24032716261223,102.18433805453478 c15.250906795975846,12.220055124972673 26.043316036506084,29.769891690749212 29.545826578561105,49.8307778255869 c-0.24759375886374926,-0.3793541802473824 -0.49989324706262817,-0.8777995105915093 -0.7540026311596338,-1.6165990162068775 c-1.6017578698422366,0.5248698104567787 -1.6535208925286644,0.5683073120118226 -3.5445001268915663,0.882867219106263 l-0.08361719049345928,0.11547135830049124 c-0.7521927352615077,1.0718203508707036 0.038369793040288605,0.6186224179797478 -1.2839401501311671,1.7353281871239972 c-1.573161514651834,1.3241198390695825 -2.598286551350865,3.1314818829390263 -4.3571433851505095,4.20330223380973 c-0.212481778440089,1.8725182962020095 0.15565104723890677,2.293862061285933 -0.316007823812944,4.5207579743411745 c-0.18388542324968518,0.8209687793903255 -1.1033125394981103,3.027955837566172 -2.180200598883569,2.860721456579255 c-0.3409843872070937,-0.06370833561406412 -1.7856432930919222,-3.637890755234911 -2.126627680299015,-4.626093915612155 c-0.5784427290413326,-1.6817552685394426 -1.2339870233428671,-2.922619896295191 -1.6535208925286644,-4.857036632213138 c-0.23564844593611223,-1.0316406619322882 -0.3945573057916479,-3.0076850035071514 -0.6302057517277598,-3.7015990908489758 c-1.1286510820718858,0.1672343809869186 -1.0783359761039601,0.8843151358247645 -2.1552240354894185,0.12705469204850287 c-0.7608802355725159,-0.5483984571324275 -0.4180859524672962,-0.882867219106263 -0.8408776342697215,-1.7038359984965896 c-0.8911927402376468,-0.8408776342697215 -1.8106198564860727,-1.6817552685394426 -2.7285990560159963,-2.5229948819887893 c-0.7105651296045905,-0.2305807374213574 -3.4406121023390885,0.1672343809869186 -4.5978595396013775,0.04162760565691698 c-2.073054761714461,-0.19076302766256725 -2.2554922682456446,-0.06370833561406412 -3.4891173124088875,-1.7237448533759858 c-2.1816485156020704,0.10714583716910797 -1.996315175633884,0.9244948247631808 -4.124752751831025,-0.9045859698837854 c-1.391085987300275,-1.1771562921416845 -1.1286510820718858,-3.0695834432230895 -3.1499428210999194,-1.9977630923523853 c-0.07673958608057742,1.7237448533759858 0.7623281522910174,2.104908929521493 1.5232083878635332,2.902349062236171 c0.5502083530305544,0.6102968968483644 1.2339870233428671,1.0298307660341615 1.521398491965407,1.8489896495263607 c0.02678645929227699,0.023528646675648704 0.15890885985553518,0.7992500286128051 0.185695319147812,0.9045859698837854 c1.969528716341607,0.12705469204850287 2.440825608213832,-0.8177109667736978 3.51771366759929,-1.6165990162068775 c1.0515495168116833,0.9863932644791177 0.02678645929227699,1.1568854580826642 1.5499948471558098,1.9326068400198202 c1.2072005640505898,0.6117448135668669 0.9715521181144775,0.2541093840970061 1.7570469379015186,1.2405026485761235 c0.3945573057916479,1.3241198390695825 -2.7018125967237188,4.920382988647576 -3.728385550141252,5.572307491152857 c-0.7873047156851677,0.5049609555773832 -1.2053906681524635,0.21067188254196229 -1.915955797757053,0.7959922159961765 c-1.0501016000931815,0.8861250317228918 0.13212240056325808,0.7590703396743894 -1.705283915215091,1.4312656762386904 c-1.969528716341607,0.7156328381193456 -3.914080869289064,2.2287058089533676 -5.987135631003524,2.355760501001871 c-0.44632032847807435,-1.2220417104152301 -0.8926406569561495,-2.459286546374725 -1.339322964613849,-3.6997891949508483 c-1.3139844220400723,-4.226468901305753 -1.2607734826351438,-2.5863412384232283 -2.6015443639674927,-4.773419441719678 c-0.6302057517277598,-0.9480234714388295 -0.36777084649937036,-1.5565104723890666 -0.7873047156851677,-2.3973881066587874 c-0.29103126041879324,-0.6302057517277598 -0.7340937762802386,-0.9045859698837854 -1.130098998790387,-1.6803073518209413 c-0.6034192924354833,-1.198875042919207 -1.310726609423444,-3.0695834432230895 -2.7036224926218457,-2.880630311458649 c-0.2892213645206665,0.9447656588222008 1.2857500460292939,4.141403794093793 1.6784974559228156,4.91857309274945 c0.3945573057916479,0.7789791945537852 1.024763057519406,1.1152578524257473 1.2086484807690916,2.230153725671869 c0.262434905228389,1.5329818257134178 -0.05176302268642719,1.342580777230477 0.7873047156851677,2.3724115432646373 c1.7606667296977716,2.12155997178426 -0.07854948197870416,1.7454636041535068 2.6533073866539203,3.8253959702808493 c2.0462683024221846,1.558320368287194 1.5232083878635332,2.019481843129907 2.3890625855274044,4.102672021873877 c1.339322964613849,0.376096367630754 5.3301434199834885,-1.407737029563042 6.010302298499548,-0.882867219106263 c0.8140911749774451,1.4493646352199587 -0.9429557629240741,3.761687634666785 -1.3892760914021487,5.023909034020431 c-1.4714453651771062,4.226468901305753 -4.044393373954195,4.1645704615898165 -6.013922090295802,7.4013882857998246 c-1.075078163487332,1.7472735000516342 -1.5749714105499601,1.9778542374729906 -2.572948008777089,4.080953271096358 c-1.130098998790387,2.375669355881266 2.2837266442564235,8.956450841470387 0.2374583418342391,11.713284273497164 c-0.44632032847807435,0.6287578350092581 -1.890979234362903,1.0081120152566394 -3.7015990908489758,2.922619896295191 c-1.9177656936551806,2.079932366127343 0.05176302268642719,1.7237448533759858 -0.6837786703123138,5.191143415007349 c-0.5766328331432062,0.7992500286128051 -1.2857500460292939,0.8408776342697215 -1.9945052797357565,1.41099484217967 c-0.262434905228389,0.8177109667736978 -0.05176302268642719,1.4678255733808534 -0.49989324706262817,2.479557380433745 c-0.47310678777035126,1.2187838977986014 -0.5502083530305544,0.5668593952933213 -1.2354349400613682,1.5565104723890666 c-0.4980833511645013,0.7757213819371555 -0.444872411759573,1.0917292057500985 -1.0233151408009047,1.807362043869444 c-0.4980833511645013,0.6537343984034087 -0.7623281522910174,0.8394297175512203 -1.2321771274447397,1.262221399353645 c-2.28553654015455,2.103099033623366 -7.195784111772617,2.1649974733393043 -7.615317980958413,1.8707084003038834 c-1.1568854580826642,-0.9863932644791177 -0.36777084649937036,-1.239054731857622 -0.6555442943015356,-2.6265209273616428 c-0.280895843389283,-1.2205937936967284 -0.9277526373798088,-2.2420990385995063 -1.4678255733808534,-3.1832449056254535 l-0.05502083530305545,-0.09701042013959772 c-0.26098698850988816,-0.4615234540223393 -0.4980833511645013,-0.9045859698837854 -0.6302057517277598,-1.3259297349677097 c-0.9462135755407023,-2.98596625272963 -0.6034192924354833,-5.2530418547232856 -2.2569401849641464,-8.28244560900796 c-2.074864657612588,-3.9122709733909367 1.153627645466036,-5.950213754681738 1.021505244902778,-8.159010708755709 c-0.05176302268642719,-0.5885781460708429 -0.26098698850988816,-0.9462135755407023 -0.316007823812944,-1.409546925461169 c-0.3927474098935203,-2.4393776914953302 -0.6269479391111319,-4.624645998893654 -2.2554922682456446,-6.53879190075258 c-1.7870912098104246,-2.079932366127343 -1.5499948471558098,-1.3458385898471048 -0.9730000348329789,-4.771609545821551 c0.7340937762802386,-3.9321798282703315 -0.9447656588222008,-2.9240678130136932 -3.3088516809554545,-3.027955837566172 c-1.1568854580826642,-3.5727345029023456 -3.415635538944937,-1.8308906905450928 -5.672575723909085,-0.7775312778352825 c-1.4193203633110547,0.6504765857867798 -1.9427422570493298,-0.1889531317644405 -3.545948043610068,0.04162760565691698 c-3.571286586183844,0.4832422047998619 -0.7608802355725159,2.019481843129907 -5.54081530252545,-1.7653724590329014 c-1.996315175633884,-1.5782292231665902 -0.656992211020037,-0.7789791945537852 -1.837406315778349,-2.755385515308273 c-0.3927474098935203,-0.7156328381193456 -1.6017578698422366,-1.6600365177619205 -2.1552240354894185,-2.3774792517793926 c-1.8106198564860727,-2.2703334146102847 0.3427942831052205,-4.5627475591777165 0.02678645929227699,-7.168997652480339 c-0.551656269749055,-4.8367657981541194 -1.339322964613849,-0.6320156476258872 1.3661094239061249,-6.476893461036643 c1.4193203633110547,-3.1115730280596314 3.571286586183844,-3.1314818829390263 4.124752751831025,-4.5207579743411745 c0.47310678777035126,-1.239054731857622 0.15709896395740822,-2.1233698676823867 1.0501016000931815,-3.258536574987529 c0.7873047156851677,-0.9244948247631808 1.9177656936551806,-0.7355416929987407 2.3640860221332543,-2.186716224116826 c0.6302057517277598,-1.7870912098104246 -0.5784427290413326,-2.016224030513279 -1.890979234362903,-2.0614714279664494 c-0.5502083530305544,-1.8707084003038834 -0.5502083530305544,-1.409546925461169 -0.13212240056325808,-3.133291778837153 c0.2374583418342391,-0.9679323263182242 0.02678645929227699,-1.4312656762386904 0.2374583418342391,-2.3973881066587874 c0.5248698104567787,-2.417658940717808 4.647812666389678,-0.019908854879395057 5.830036667046118,-1.0099219111547661 c0.5502083530305544,-1.0298307660341615 0.6302057517277598,-2.037942781290801 0,-3.027955837566172 c-0.6588021069181632,-0.988203160377244 -1.5232083878635332,-0.8625963850472431 -1.969528716341607,-1.807362043869444 c0.9979765982271293,-0.6721953365643027 0.262434905228389,-0.08361719049345928 1.1286510820718858,-0.27401823897640126 c1.0233151408009047,-0.2305807374213574 0.8911927402376468,-0.5266797063549051 2.0998412210067383,-0.7558125270577605 c1.0783359761039601,-0.212481778440089 1.7621146464162747,-1.198875042919207 2.810406350611328,-1.8707084003038834 c1.4964219285712572,-0.9679323263182242 0.7873047156851677,-1.832338607263594 2.599734468069366,-2.1233698676823867 c2.914294375163808,-0.5064088722958856 1.0233151408009047,-0.42134376508392457 1.3407708813323493,-3.1347396955556546 c0.444872411759573,-0.1672343809869186 0.86440628094537,-0.359445325367987 1.2839401501311671,-0.5465885612342999 c0.9194271162484255,1.198875042919207 -0.23564844593611223,0.7156328381193456 0.8662161768434975,1.5130729708340234 c0.2892213645206665,-0.1672343809869186 0.6302057517277598,-0.3344687619738376 0.9462135755407023,-0.5017031429607544 c-0.15890885985553518,-1.3056589009086892 -0.7608802355725159,-1.05335941270981 -1.1554375413641629,-2.6699584289166873 c-1.4446589058848291,0.2305807374213574 -1.969528716341607,1.4493646352199587 -3.124604278526144,1.0081120152566394 c-1.1286510820718858,-0.41953386918579727 -1.1818620214768143,-2.039752677188927 -1.1286510820718858,-3.385591267036032 c0.41953386918579727,-1.0081120152566394 2.5193750901925354,-1.5547005764909403 3.332018348451478,-1.8088099605879453 c1.3157943179381992,-0.44125261996331927 1.130098998790387,-1.3241198390695825 2.3372995628409767,-2.5244427987072893 c1.5764193272684617,-1.5764193272684617 0.41953386918579727,0.021718750777521886 1.1818620214768143,-2.016224030513279 c1.7338802704054954,-0.06515625233256568 0.9194271162484255,-0.12705469204850287 1.9427422570493298,-0.6519245025052816 l0.05176302268642719,-0.019908854879395057 l0.10533594127098117,-0.04343750155504372 c0.6052291883336102,-0.27401823897640126 1.3925339040187776,-0.33591667869233827 2.180200598883569,-0.608487000950237 c2.8875079158715304,-0.9664844095997227 4.069369937348346,-0.4832422047998619 6.1692111583550835,0.376096367630754 c1.628544329134514,0.6736432532828039 6.53879190075258,0.6939140873418237 6.9065627472519475,2.7568334320267747 c-1.1804141047583132,1.237244835959495 -2.309065186830199,0.3344687619738376 -4.0176069146619175,0.44125261996331927 c0.3141979279148169,1.596690161327481 0.444872411759573,1.596690161327481 1.890979234362903,2.037942781290801 c0.2374583418342391,-0.7572604437762619 -0.10533594127098117,-0.4615234540223393 0.2892213645206665,-0.9462135755407023 c0.47310678777035126,0.10533594127098117 0.9462135755407023,0.1889531317644405 1.4178724465925525,0.275828134874528 c0.47491668366847806,-1.620218808003131 1.024763057519406,-1.3878281746836474 2.6283308232597706,-1.5782292231665902 c-0.264244801126516,-1.1152578524257473 -0.553466165647182,-0.7992500286128051 0.05031510596792572,-1.6817552685394426 c1.656778705145293,0.17049219360354684 0.316007823812944,0.023528646675648704 1.130098998790387,1.347648485745231 c1.1554375413641629,-0.14877344282602503 2.28553654015455,-1.4312656762386904 3.8854845140986596,-1.5985000572256087 c0.9979765982271293,-0.10533594127098117 0.9462135755407023,0.27401823897640126 2.362276126235128,0.12524479615037637 c1.1554375413641629,-0.12524479615037637 1.101864622779609,-0.5465885612342999 2.2605599767603994,-0.06189843971593748 c0.4180859524672962,-0.7789791945537852 0,-0.7590703396743894 1.0233151408009047,-0.9462135755407023 c1.573161514651834,-0.27401823897640126 2.94071885527646,0.6921041914436968 4.462479326421491,0.9045859698837854 c-1.1268411861737588,-1.38601827878552 -2.205177162277719,-1.1152578524257473 -0.8126432582589425,-3.427218872692949 c1.758856833799645,-0.35763542946986077 1.915955797757053,-0.10533594127098117 2.6782839500480713,1.2205937936967284 c0.4314791821134347,-0.2425260503489944 0.61536460536312,-0.48650001741648946 0.8292943005217096,-0.6102968968483644 L181.24032716261223,102.18433805453478 zM92.91885525074186,215.6090660734242 L92.91885525074186,215.6090660734242 c-2.731856868632624,-1.1938073344044513 -5.393489776417928,-2.516117277575908 -7.979831014841157,-3.9575183708441073 c-0.03185416780703208,-0.10714583716910797 -0.06008854381781059,-0.22406511218810077 -0.08542708639158618,-0.359445325367987 c-0.3927474098935203,-2.33548966694285 0.6052291883336102,-2.588151134321355 -0.49989324706262817,-6.478703356934769 c-0.723958359250729,-2.572948008777089 -0.43292709883193614,-8.668677393668224 -1.198875042919207,-11.793643651373994 c-0.1219869835337479,-0.4980833511645013 -0.2725703222578994,-0.9212370121465524 -0.45464584960945814,-1.2437604611927517 c-0.7087552337064632,-1.1753463962435577 -2.442635504111958,-1.7219349574778577 -3.8319115955141063,-2.6699584289166873 c-0.08035937787683096,-0.018460938160893635 -0.13212240056325808,-0.04162760565691698 -0.15709896395740822,-0.08361719049345928 c-1.9177656936551806,-1.3458385898471048 -3.7298334668597533,-6.624218987144166 -5.2530418547232856,-8.598453432820902 c-0.7073073169879616,-0.9480234714388295 -1.153627645466036,-0.5284896022530321 -1.4696354692789788,-2.019481843129907 c-0.3409843872070937,-1.3661094239061249 0.18388542324968518,-1.1337187905866408 0.6320156476258872,-2.2721433105084112 c-2.3372995628409767,-4.28836734102169 3.0192683372551636,-4.226468901305753 1.9177656936551806,-9.377794606554312 c-0.2374583418342391,-0.9462135755407023 -0.9179791995299237,-2.2703334146102847 -1.4964219285712572,-2.6884193670775796 c-1.1033125394981103,0.4832422047998619 -0.5802526249394594,0.7540026311596338 -1.1568854580826642,1.6803073518209413 c-0.8911927402376468,-0.5049609555773832 -1.783833397193794,-1.011369827873268 -2.6500495740372916,-1.5130729708340234 c-2.7050704093403475,-2.6080599892007497 -1.262221399353645,-0.7170807548378465 -2.021291739028034,-2.419106857436309 c-1.628544329134514,-3.574544398800472 -3.179987093008825,-1.5749714105499601 -5.1227293500581546,-3.3421537654809885 c-0.8676640935619989,-0.7373515888968668 -1.024763057519406,-1.8942370469795313 -2.467612067506109,-1.6817552685394426 c-2.180200598883569,0.2942890730354216 -0.9730000348329789,0.6302057517277598 -3.2299402197971263,-0.4231536609820514 c-1.9177656936551806,-0.9045859698837854 -3.9122709733909367,-1.954325590797342 -5.2530418547232856,-3.17491938449407 c-0.05176302268642719,-1.8924271510814041 0.6320156476258872,-1.9778542374729906 -0.5502083530305544,-3.7417787797873907 c-0.20886198664383537,-0.3275911575609547 -0.444872411759573,-0.6320156476258872 -0.6837786703123138,-0.9230469080446788 c3.694721486436094,-16.811037060161166 12.542578574018872,-31.687657384404393 24.80751911726509,-42.88910309791128 c0.9530911799535845,0.3326588660757104 2.2135026834091027,0.11366146240236447 3.1597162589498042,0.07529166936207576 c0.33953647048859215,-0.6302057517277598 0.5502083530305544,-1.1786042088601862 1.1554375413641629,-1.409546925461169 c0.23564844593611223,-0.08361719049345928 0.5248698104567787,-0.10352604537285429 0.9179791995299237,-0.08361719049345928 c0.05176302268642719,0.312750011196315 0.13212240056325808,0.6302057517277598 0.21067188254196229,0.9447656588222008 c0,0.023528646675648704 0.05357291858455401,0.23239063331948392 0.02678645929227699,0.19076302766256725 c0.02678645929227699,-0.04343750155504372 0.05176302268642719,0.12524479615037637 0.07673958608057742,0.18714323586631365 c1.656778705145293,-0.9664844095997227 0.264244801126516,-0.988203160377244 1.1554375413641629,-2.7336667645307506 c-1.391085987300275,-0.27401823897640126 -1.2072005640505898,-0.10714583716910797 -2.074864657612588,-0.9896510770957462 c0.8426875301678487,-0.9244948247631808 2.467612067506109,-1.2405026485761235 3.6766225274548248,-1.1554375413641629 c-0.08035937787683096,0.8426875301678487 -0.47310678777035126,0.8209687793903255 -0.15565104723890677,1.5347917216115445 c0.9447656588222008,-0.5885781460708429 1.6017578698422366,-2.163549556620802 3.1231563618076432,-1.8707084003038834 c0.2892213645206665,0.20886198664383537 0.6320156476258872,0.3996250143064025 0.9462135755407023,0.5885781460708429 c-0.7891146115832949,0.7355416929987407 -1.969528716341607,0.7789791945537852 -2.992843857142512,1.198875042919207 c-0.44813022437620176,4.564195475896217 1.4446589058848291,0.7373515888968668 0.8126432582589425,3.8702813885543947 c1.1286510820718858,-0.08361719049345928 2.2319636215699963,-0.9045859698837854 2.6514974907557933,-1.7454636041535068 c-0.41953386918579727,-0.5465885612342999 -1.024763057519406,-0.5465885612342999 -1.3642995280079981,-1.198875042919207 c0.264244801126516,-0.8408776342697215 0.8292943005217096,-1.477960990410363 1.628544329134514,-1.8573151706577442 c0.540072936001044,-0.2559192799951327 1.185481813273068,-0.3927474098935203 1.9177656936551806,-0.3927474098935203 c8.34941175723865,0.06370833561406412 4.383567865263161,0.44125261996331927 6.9583257699383765,1.620218808003131 c0.5766328331432062,0.2508515714803778 1.59994797394411,0.3793541802473824 1.9427422570493298,0.882867219106263 c0.5248698104567787,0.7992500286128051 0.02678645929227699,1.5547005764909403 0.8662161768434975,2.186716224116826 c0.7355416929987407,0.5465885612342999 0.8408776342697215,-0.021718750777521886 1.812429752384199,1.2003229596377085 c-0.20886198664383537,0.6921041914436968 -0.7087552337064632,1.407737029563042 -1.7320703745073687,1.4294557803405634 c-1.4178724465925525,0.019908854879395057 -0.5784427290413326,-0.9480234714388295 -2.101651116904865,-0.7992500286128051 c0.02859635519040387,1.4276458844424371 1.4446589058848291,1.9760443415748634 0.1303125046651312,2.753575619410146 c-1.1554375413641629,0.6953620040603248 -0.42134376508392457,-0.2508515714803778 -1.2857500460292939,0.23239063331948392 c-0.02678645929227699,0.021718750777521886 -0.10533594127098117,0.06370833561406412 -0.1303125046651312,0.08542708639158618 c-0.05176302268642719,0.04162760565691698 -0.10533594127098117,0.10533594127098117 -0.13212240056325808,0.14696354692789804 c-0.15565104723890677,0.16868229770542006 -0.2892213645206665,0.316007823812944 -0.4180859524672962,0.4647812666389678 c-2.0998412210067383,-0.5701172079099489 -1.705283915215091,-0.316007823812944 -2.9675053145687373,-1.7038359984965896 c-0.47129689187222434,-0.5248698104567787 -0.5502083530305544,-0.6519245025052816 -1.391085987300275,-0.5885781460708429 c-0.5248698104567787,0.019908854879395057 -1.2072005640505898,0.2508515714803778 -1.7070938111132183,-0.21067188254196229 c1.024763057519406,-1.2824922334126656 1.5246563045820343,-0.04162760565691698 3.02107823315329,-0.8006979453313059 c0.262434905228389,-0.12705469204850287 1.915955797757053,-1.407737029563042 2.180200598883569,-1.7038359984965896 c-0.44632032847807435,-1.0099219111547661 -0.05357291858455401,-0.17049219360354684 -0.7073073169879616,-0.8209687793903255 c-1.4714453651771062,-1.4913542200565009 -1.8942370469795313,-1.1152578524257473 -3.8854845140986596,-1.1152578524257473 c-0.9346302417926905,1.075078163487332 -1.6336120376492693,2.404265711071669 -2.6514974907557933,2.9877761486277565 c-0.61536460536312,0.3529297001347307 -1.3458385898471048,0.43292709883193614 -2.312322999446827,0.019908854879395057 c0.44632032847807435,1.8091719397675707 1.6017578698422366,0.42134376508392457 1.705283915215091,2.606612072482248 c-0.7608802355725159,-0.14696354692789804 -1.1554375413641629,-0.5266797063549051 -1.9427422570493298,-0.2522994881988792 c-1.6817552685394426,0.6302057517277598 -0.18388542324968518,0.5668593952933213 -0.05357291858455401,0.9045859698837854 c0,0.021718750777521886 0.7873047156851677,0.10533594127098117 0,0.3996250143064025 c-0.8676640935619989,0.3141979279148169 -0.13212240056325808,-0.16868229770542006 -1.8106198564860727,-1.1568854580826642 c0.23564844593611223,-0.41953386918579727 0.47310678777035126,-0.8611484683287419 0.7087552337064632,-1.3024010882920611 c-1.3642995280079981,0.42134376508392457 -3.0728412558397173,1.0935391016482257 -4.672789229783827,1.8707084003038834 c-1.8138776691027003,0.9045859698837854 -3.519523563497417,1.9362266318160737 -4.5442866210168225,2.880630311458649 c-0.02678645929227699,1.5782292231665902 0.262434905228389,0.5248698104567787 0.42134376508392457,2.399198002556915 c2.440825608213832,0.14551563020939687 1.6535208925286644,0.8792474273100098 4.096156396640622,1.5749714105499601 c0.46984897515372276,0.1288645879466298 1.0765260802058334,0.2541093840970061 1.812429752384199,0.3793541802473824 c0,1.1786042088601862 -1.0515495168116833,2.0614714279664494 -0.31781771971107026,3.2820652216631787 c1.7070938111132183,1.1952552511229533 1.758856833799645,-1.1369766032032689 2.180200598883569,-2.6283308232597706 c5.779721561078191,-1.2072005640505898 2.9942917738610135,-2.9056068748527983 4.487455889815641,-6.085593967861625 c0.22406511218810077,-0.47491668366847806 0.5415208527195456,-0.9813255559643627 0.9997864941252559,-1.528276096378289 c0.444872411759573,0.021718750777521886 2.2569401849641464,0.212481778440089 2.6514974907557933,0.2942890730354216 c1.3139844220400723,0.2305807374213574 0.6052291883336102,0.5465885612342999 2.023101634926161,1.1771562921416845 c-0.02678645929227699,1.1369766032032689 -0.6034192924354833,2.6080599892007497 1.0765260802058334,2.33548966694285 c1.2871979627477954,-0.22913282070285565 0.9997864941252559,-1.2405026485761235 2.572948008777089,-1.4931641159546278 c0.7073073169879616,1.661846413660048 0.5248698104567787,2.3774792517793926 0.8394297175512203,4.373794427413276 c3.7819584687258057,1.472893281895607 2.0998412210067383,2.6699584289166873 1.3642995280079981,5.427153840123087 c0.47491668366847806,0.2305807374213574 0.9715521181144775,0.44125261996331927 1.4714453651771062,0.6504765857867798 c-0.0249765633941502,0.7992500286128051 -0.05357291858455401,1.5782292231665902 -0.07854948197870416,2.3572084177203734 c-0.07854948197870416,0 -4.045841290672697,-0.86440628094537 -4.306828279182584,-0.9462135755407023 c0.6034192924354833,-1.7255547492741115 1.7070938111132183,-1.7454636041535068 2.4158490448196823,-3.510836063186408 c-1.4178724465925525,0.2508515714803778 -1.3139844220400723,0.6921041914436968 -2.3372995628409767,1.0081120152566394 c-0.9179791995299237,0.27401823897640126 -1.6267344332363871,0.08361719049345928 -2.598286551350865,0.21067188254196229 c-0.3409843872070937,1.1337187905866408 -0.02678645929227699,-0.9896510770957462 0.08035937787683096,0.4597135581242127 c0.05176302268642719,0.5483984571324275 0.316007823812944,0.023528646675648704 -0.05357291858455401,0.6102968968483644 c-1.3139844220400723,-0.6102968968483644 -0.8662161768434975,-2.039752677188927 -3.3088516809554545,-0.7156328381193456 c0.551656269749055,0.2522994881988792 1.101864622779609,0.4832422047998619 1.6803073518209413,0.7156328381193456 c-0.07673958608057742,1.6165990162068775 -0.20886198664383537,0.39781511840827566 -0.5502083530305544,1.4714453651771062 c-0.8408776342697215,2.753575619410146 2.2837266442564235,1.0501016000931815 3.0981797984134927,0.9045859698837854 c-0.21067188254196229,1.4511745311180855 -1.1033125394981103,1.4511745311180855 -2.3640860221332543,1.8489896495263607 c-1.3892760914021487,0.42134376508392457 -1.8106198564860727,0.9896510770957462 -2.914294375163808,1.2423125444742504 c0,-1.7255547492741115 -0.26098698850988816,-0.27401823897640126 0.4980833511645013,-1.4714453651771062 c-1.1033125394981103,0.10352604537285429 -1.9177656936551806,0.608487000950237 -2.9675053145687373,1.0515495168116833 l-0.10352604537285429,0.04017968893841555 c-1.3490964024637324,0.5502083530305544 -1.553252659772439,0.6320156476258872 -1.7085417278317194,2.355760501001871 c-1.1554375413641629,0.35618751275135857 -2.4943985267983853,0.7590703396743894 -3.3088516809554545,1.59994797394411 c-0.8126432582589425,0.7775312778352825 -1.628544329134514,1.553252659772439 -2.417658940717808,2.3105131035487 c-0.07673958608057742,0.06370833561406412 -0.13212240056325808,0.12705469204850287 -0.18062761063305696,0.1690442768850452 c0.2892213645206665,2.1649974733393043 0,2.206987058175846 -1.3157943179381992,3.0511225050621955 c-1.101864622779609,0.7123750255027168 -1.4696354692789788,0.6921041914436968 -2.492950610079884,1.596690161327481 c-3.2820652216631787,2.944338647072713 -1.705283915215091,1.5749714105499601 -1.5246563045820343,6.644127842023561 c-0.6819687744141869,-0.20886198664383537 -1.3375130687157208,-0.44125261996331927 -1.9677188204434806,-0.6721953365643027 c-0.49989324706262817,-3.3656824121566373 0.18207552735155833,-2.248614663832763 -2.521184986090662,-3.027955837566172 c-2.9157422918823097,-0.8408776342697215 -2.5229948819887893,0.5885781460708429 -3.7298334668597533,0.8408776342697215 c-1.339322964613849,0.2924791771372946 -1.996315175633884,-1.2205937936967284 -3.939057432683214,0.04162760565691698 c-1.075078163487332,0.7340937762802386 -2.0998412210067383,1.2187838977986014 -2.362276126235128,2.521184986090662 c-0.3141979279148169,1.5782292231665902 -1.0233151408009047,2.731856868632624 -0.9194271162484255,4.479130368684259 c0.185695319147812,4.733239752781263 4.490713702432269,5.004000179141034 5.59402624193038,2.7970131209651896 c0.7340937762802386,-1.4714453651771062 0.551656269749055,-2.2703334146102847 2.94071885527646,-1.8924271510814041 c0.23564844593611223,1.262221399353645 -0.13212240056325808,2.186716224116826 -0.44813022437620176,3.1550105296146747 c-0.20886198664383537,0.5668593952933213 -0.7873047156851677,1.596690161327481 -0.4980833511645013,2.3774792517793926 c1.7070938111132183,0.6939140873418237 1.758856833799645,-0.6117448135668669 4.0176069146619175,0.7340937762802386 c0.15890885985553518,2.248614663832763 -1.0233151408009047,4.771609545821551 0.7087552337064632,6.07582053001174 c1.3375130687157208,0.988203160377244 1.4178724465925525,0.10533594127098117 2.598286551350865,-0.10352604537285429 c1.3139844220400723,-0.2305807374213574 1.0783359761039601,0.5885781460708429 2.2869844568730513,0.7789791945537852 c0.6819687744141869,-0.8426875301678487 0.3927474098935203,-0.3141979279148169 0.8408776342697215,-1.347648485745231 c0.7873047156851677,-1.783833397193794 0.996528681508628,-0.9447656588222008 2.862169373297755,-2.0364948645722993 c0.18207552735155833,-0.10533594127098117 0.33953647048859215,-0.212481778440089 0.5248698104567787,-0.33772657459046546 c0.20886198664383537,0.44125261996331927 0.44632032847807435,0.8625963850472431 0.6537343984034087,1.2824922334126656 c1.3661094239061249,-1.618408912105004 1.5232083878635332,-0.04162760565691698 3.0996277151319944,0.3996250143064025 c0.6787109617975585,0.185695319147812 1.1601432706992925,0.2522994881988792 1.5329818257134178,0.2573671967136341 c1.1453021243346526,0.01665104226276678 1.262221399353645,-0.540072936001044 2.825609476155593,0.013393229646138509 c0.185695319147812,0.08687500311008757 0.42134376508392457,0.14877344282602503 0.6320156476258872,0.212481778440089 c0.0249765633941502,0 0.10352604537285429,0.04162760565691698 0.10352604537285429,0.08542708639158618 c0.02859635519040387,0.021718750777521886 0.10533594127098117,0.08361719049345928 0.13212240056325808,0.10714583716910797 c0.262434905228389,0.2924791771372946 0.29103126041879324,0.5885781460708429 0.49989324706262817,0.9027760739856586 c1.0765260802058334,1.0298307660341615 2.1534141395912916,2.0614714279664494 3.2035157396844736,3.0695834432230895 c2.073054761714461,0.8209687793903255 2.073054761714461,-0.7156328381193456 4.437140783847715,1.5749714105499601 c0.9979765982271293,0.9462135755407023 0.5502083530305544,0.9277526373798088 1.101864622779609,2.145088618459909 c0.08035937787683096,0.19076302766256725 0.2374583418342391,0.377906263528881 0.3409843872070937,0.6102968968483644 c0.21067188254196229,0.5683073120118226 0.44632032847807435,1.1134479565276205 0.6837786703123138,1.6600365177619205 c1.075078163487332,1.409546925461169 2.546161549484813,0.5266797063549051 4.042583478056068,1.9778542374729906 c0.8662161768434975,0.8408776342697215 0.21067188254196229,0.5885781460708429 2.126627680299015,0.9244948247631808 c2.9675053145687373,0.4832422047998619 1.8138776691027003,0.21067188254196229 4.071179833246472,1.9141459018589264 c0.8662161768434975,0.6302057517277598 1.075078163487332,0.2725703222578994 1.889169338464776,0.8191588834921998 c1.130098998790387,1.5764193272684617 0.8408776342697215,3.280255325765051 -0.10352604537285429,4.668083500448698 c-2.9157422918823097,4.246739735364773 -1.9177656936551806,3.55282564802295 -2.049888094218438,6.9181460809999615 c-0.10533594127098117,1.9326068400198202 -0.656992211020037,5.928495003904216 -2.469421963404235,6.411737208704078 c-6.589107006720506,1.8526094413226146 -2.7568334320267747,3.1347396955556546 -4.488903806534142,6.393276270543183 c-0.4980833511645013,0.9263047206613072 -0.8676640935619989,1.1568854580826642 -1.1818620214768143,1.8942370469795313 c-1.310726609423444,3.067773547324962 -0.3927474098935203,4.09941420925725 -4.2800418198903065,3.405500121915426 c0.3695807423974974,0.6504765857867798 0.13212240056325808,0.20886198664383537 0.49989324706262817,0.7974401327146784 c1.1554375413641629,1.7870912098104246 1.339322964613849,3.1347396955556546 -1.024763057519406,3.5727345029023456 c-1.969528716341607,0.3793541802473824 -1.1286510820718858,0 -1.3125365053215714,2.186716224116826 c-0.7623281522910174,0.316007823812944 -1.1033125394981103,0 -1.6017578698422366,0.5049609555773832 l0.185695319147812,0.3460520957218488 L92.91885525074186,215.6090660734242 zM75.61299265203283,104.83402564939246 L75.61299265203283,104.83402564939246 c0.5082187681940115,-0.0669661482306925 0.5064088722958856,-0.2874114686225394 1.837406315778349,-0.6102968968483644 c-0.10533594127098117,-0.44125261996331927 -0.185695319147812,-0.44125261996331927 -0.2892213645206665,-0.608487000950237 l-0.04162760565691698,-0.08361719049345928 c-0.5064088722958856,0.42785939031718084 -1.0099219111547661,0.86440628094537 -1.5065573456007666,1.3042109841901874 V104.83402564939246 zM145.80111756057056,129.21730516813662 L145.80111756057056,129.21730516813662 l-0.05176302268642719,-0.03692187632178723 c-0.18388542324968518,-0.12524479615037637 -0.3663229297808694,-0.2508515714803778 -0.5234218937382773,-0.39781511840827566 c-1.1554375413641629,-1.0316406619322882 -1.3943437999169035,-1.954325590797342 -2.6782839500480713,-1.7237448533759858 c-0.02859635519040387,0.9679323263182242 0.10533594127098117,1.0081120152566394 0.5766328331432062,1.6401276628825259 c1.7856432930919222,2.2287058089533676 1.2339870233428671,1.472893281895607 2.6247110314635167,2.292052165387806 l0.05176302268642719,0.030044271908905296 c0.329401053459082,0.1889531317644405 0.7105651296045905,0.4531979328909557 1.2339870233428671,0.8325521131383378 c-1.7856432930919222,1.573161514651834 -0.1303125046651312,1.742205791536878 -1.2339870233428671,2.2688854978917834 l-0.05176302268642719,0.0249765633941502 c-0.10714583716910797,0.04017968893841555 -0.20886198664383537,0.08361719049345928 -0.2874114686225394,0.12524479615037637 c-0.3695807423974974,-0.9263047206613072 0.444872411759573,-0.4832422047998619 -0.49989324706262817,-1.8290807946469654 c-0.5248698104567787,-0.6939140873418237 -1.0233151408009047,-0.9045859698837854 -1.837406315778349,-1.2857500460292939 c-2.049888094218438,-0.9664844095997227 -1.7856432930919222,-1.7219349574778577 -3.0460547965474403,-2.9845183360111287 c-1.4193203633110547,0.04343750155504372 -1.101864622779609,0.48469012151836277 -2.0998412210067383,0.9896510770957462 c-1.2072005640505898,0.5867682501727166 -1.0233151408009047,-0.10352604537285429 -2.442635504111958,0.019908854879395057 c-1.1554375413641629,2.041562573087055 0.4980833511645013,0.33772657459046546 -1.6017578698422366,2.019481843129907 c-2.521184986090662,1.954325590797342 -0.44632032847807435,3.9940782679862687 -4.488903806534142,4.60618506073276 c-0.2892213645206665,0.04162760565691698 -0.3945573057916479,0 -0.6819687744141869,0.10352604537285429 c-0.7641380481891443,0.2725703222578994 -0.31781771971107026,0.04162760565691698 -0.7641380481891443,0.4832422047998619 c0.3427942831052205,0.8006979453313059 -0.1303125046651312,0.6721953365643027 1.2354349400613682,0.8625963850472431 c2.4943985267983853,0.3344687619738376 2.810406350611328,-1.198875042919207 4.622836102995527,-1.5782292231665902 c0.8911927402376468,-0.1889531317644405 6.485218982168027,-0.42134376508392457 6.878328371241171,-0.316007823812944 c1.2072005640505898,1.347648485745231 0.21067188254196229,2.293862061285933 0.21067188254196229,3.427580851872574 c1.3157943179381992,0.6939140873418237 3.1781771971106982,0.8625963850472431 3.9405053494017155,1.5782292231665902 c0.8662161768434975,0.8191588834921998 0.44632032847807435,0.6921041914436968 0.8662161768434975,0.8394297175512203 l0.05176302268642719,0.01665104226276678 c0.15890885985553518,0.0452473974531706 0.3880416805583905,0.12705469204850287 0.7891146115832949,0.2790859474911562 c1.0501016000931815,0.35618751275135857 0.996528681508628,0.5668593952933213 2.1248177844008884,0.6504765857867798 c1.024763057519406,-3.427580851872574 -0.02678645929227699,-3.0695834432230895 4.910247571618067,-1.4946120326731287 c5.146257996733803,1.6853750603356976 2.8353829140054785,0.14877344282602503 5.015583512889047,0.3793541802473824 c1.0783359761039601,0.10714583716910797 0.7891146115832949,0.44125261996331927 2.28553654015455,0.2522994881988792 c0.2874114686225394,-0.5885781460708429 2.4140391489215545,-5.9303048998023415 -0.3427942831052205,-5.256299667339915 c-0.8140911749774451,0.20886198664383537 -0.26098698850988816,0.503151059679256 -1.4178724465925525,0.20886198664383537 c-1.2072005640505898,-0.312750011196315 -0.05176302268642719,-0.5451406445157992 -1.3892760914021487,-0.35763542946986077 c-1.3157943179381992,0.19076302766256725 -2.8889558325900317,1.347648485745231 -3.914080869289064,-2.6265209273616428 c-0.3927474098935203,-1.4312656762386904 -1.1033125394981103,-2.6699584289166873 -2.7300469727344963,-0.5067708514755098 c0.41953386918579727,0.7355416929987407 0.7087552337064632,0.7992500286128051 1.1804141047583132,1.5148828667321492 c-0.1303125046651312,0.20886198664383537 -0.5766328331432062,0.7355416929987407 -0.7340937762802386,0.9045859698837854 c-0.8911927402376468,0.882867219106263 0.3695807423974974,0.46297137074084116 -1.0765260802058334,0.6504765857867798 c-0.7873047156851677,-0.5885781460708429 -0.6287578350092581,-1.3458385898471048 -1.391085987300275,-2.395940189940286 c-1.339322964613849,-1.9579453825935955 -0.47310678777035126,-1.0515495168116833 -1.1554375413641629,-2.9240678130136932 c-0.5368151233844162,-0.47129689187222434 -1.4276458844424371,-0.824226592006955 -2.1552240354894185,-1.2871979627477954 H145.80111756057056 zM173.8454545020457,185.82578115302883 L173.8454545020457,185.82578115302883 c-1.153627645466036,0.5885781460708429 -1.3125365053215714,1.9362266318160737 -2.178390702985442,2.6916771796942083 c-0.9447656588222008,0.8625963850472431 -2.206987058175846,0.4647812666389678 -2.572948008777089,2.0614714279664494 c-0.47310678777035126,1.996315175633884 0.7873047156851677,1.3878281746836474 -0.6034192924354833,3.9940782679862687 c-0.4980833511645013,0.9664844095997227 -0.5248698104567787,3.3837813711379057 0.2374583418342391,4.101224105155377 c2.2822787275379213,2.205177162277719 3.51771366759929,-3.36387251625851 4.042583478056068,-5.109336120412018 c0.3945573057916479,-1.2405026485761235 0.7623281522910174,-2.6482396781391646 1.1818620214768143,-3.8069350321199558 C174.37213420840058,188.51782031190265 174.9759154800157,187.42609110615254 173.8454545020457,185.82578115302883 zM170.065305929218,127.1605394695053 L170.065305929218,127.1605394695053 c0.18388542324968518,2.5678803002623343 1.705283915215091,3.5546355439210773 2.7836198913190513,4.731429856883135 c-0.1303125046651312,1.2205937936967284 -0.42134376508392457,0.9045859698837854 -0.3945573057916479,2.606612072482248 c1.2871979627477954,0.9277526373798088 2.230153725671869,1.4931641159546278 3.914080869289064,1.0330885786507897 c0.23564844593611223,-2.0614714279664494 -0.42134376508392457,-1.9579453825935955 -1.0501016000931815,-3.3656824121566373 c0.10533594127098117,-0.16868229770542006 0.3927474098935203,-0.377906263528881 0.444872411759573,-0.41953386918579727 c0.47491668366847806,-0.6302057517277598 0.2374583418342391,0.2508515714803778 0.47491668366847806,-0.8209687793903255 c-1.2339870233428671,-0.39781511840827566 -3.2299402197971263,-1.661846413660048 -3.385591267036032,-3.3204350147034667 c0.6034192924354833,-0.4832422047998619 0.41953386918579727,-0.19076302766256725 0.86440628094537,-0.4832422047998619 c0.9715521181144775,-0.6320156476258872 0.2374583418342391,0.3344687619738376 0.8140911749774451,-0.7373515888968668 c-0.4980833511645013,-0.9664844095997227 -1.0501016000931815,-1.1351667073051421 -2.2569401849641464,-0.6519245025052816 c-0.5248698104567787,0.21067188254196229 -1.9177656936551806,1.198875042919207 -2.206987058175846,1.4294557803405634 L170.065305929218,127.1605394695053 zM159.32502169055383,127.83454470196773 L159.32502169055383,127.83454470196773 c-0.8126432582589425,-1.1337187905866408 -0.7623281522910174,-1.7038359984965896 -2.3372995628409767,-1.7454636041535068 c-0.6287578350092581,0.6736432532828039 -1.3642995280079981,1.6817552685394426 -1.705283915215091,2.7119480137532292 c-0.5248698104567787,1.5565104723890666 -0.15709896395740822,0.4832422047998619 -0.10533594127098117,2.1668073692374303 c-0.02678645929227699,0.06189843971593748 0,0.14877344282602503 0,0.21067188254196229 c-0.02678645929227699,1.0081120152566394 -0.264244801126516,-0.19076302766256725 -0.10533594127098117,0.7355416929987407 c1.2354349400613682,-0.2541093840970061 0.29103126041879324,-0.23239063331948392 1.2104583766672181,-0.5266797063549051 c0.8662161768434975,-0.2942890730354216 3.51771366759929,-1.0935391016482257 4.2800418198903065,-0.9027760739856586 c1.8106198564860727,0.41953386918579727 3.333828244349605,1.850799545424488 5.3833543593884166,0.41953386918579727 c-0.10714583716910797,-1.8290807946469654 -2.312322999446827,-2.5229948819887893 -3.8351694081307346,-3.3236928273200945 c0.08035937787683096,-1.6803073518209413 0.5248698104567787,-0.35618751275135857 0.41953386918579727,-1.9760443415748634 c-0.5248698104567787,-0.021718750777521886 -0.8408776342697215,-0.10533594127098117 -1.339322964613849,0.10533594127098117 c-1.1818620214768143,0.5248698104567787 -0.5248698104567787,0.6736432532828039 -0.5248698104567787,0.8625963850472431 c0.05176302268642719,0.9027760739856586 1.1818620214768143,-0.1889531317644405 -0.0249765633941502,0.9263047206613072 c-0.3409843872070937,0.2924791771372946 -0.8944505528542754,0.2924791771372946 -1.3139844220400723,0.33591667869233827 H159.32502169055383 zM128.65416382171708,115.0928775791549 L128.65416382171708,115.0928775791549 c-0.05031510596792572,2.944338647072713 0.9730000348329789,1.954325590797342 1.9427422570493298,3.407310017813554 c-0.444872411759573,1.2405026485761235 -0.5248698104567787,0.27401823897640126 -1.021505244902778,1.5547005764909403 c-0.44632032847807435,1.0732682675892051 0.10352604537285429,0.10714583716910797 -0.185695319147812,1.9760443415748634 c0.7623281522910174,0.04343750155504372 1.890979234362903,-0.22913282070285565 2.8889558325900317,-0.3141979279148169 c1.4193203633110547,-0.12705469204850287 1.391085987300275,-0.2522994881988792 1.890979234362903,-1.7038359984965896 c-0.7873047156851677,-0.9664844095997227 -1.5749714105499601,-1.934416735917946 -2.3890625855274044,-2.9009011455176688 c-1.0265729534175332,-1.558320368287194 0,-0.48469012151836277 -0.3141979279148169,-1.7889011057085502 c-0.23564844593611223,-0.46297137074084116 -0.44813022437620176,-0.9230469080446788 -0.656992211020037,-1.3878281746836474 C129.44327843330038,114.40077338771121 129.57540083386363,114.27371869566271 128.65416382171708,115.0928775791549 z" id="svg_3" class=""/><path style="fill:#FBB429;" d="M180.5532906796833,109.88327322598666 l-0.7941823200980499,-0.7941823200980499 l-3.2737397005317947,-3.2737397005317947 l-0.7941823200980499,-0.7941823200980499 c-2.583083425806599,0.9798776392458611 -5.8166434373999785,5.2146720616829985 -7.092258066399762,7.886440386497811 l0.3963672016897745,0.39781511840827566 l3.2737397005317947,3.2737397005317947 l0.39781511840827566,0.39781511840827566 c2.6717683248148134,-1.2774245248979104 6.9065627472519475,-4.509174640593162 7.886440386497811,-7.092258066399762 V109.88327322598666 z" id="svg_4" class=""/><path style="fill:#FFFFFF;" d="M180.5532906796833,109.88327322598666 l-0.7941823200980499,-0.7941823200980499 l-3.2737397005317947,-3.2737397005317947 l-0.7941823200980499,-0.7941823200980499 c-0.5969036672022263,0.2273229248047292 -1.2256615022114834,0.6269479391111319 -1.8609349624539977,1.1402344158198976 l5.582442908182368,5.582442908182368 c0.5132864767087664,-0.6338255435240133 0.9129114910151689,-1.264031295251772 1.1402344158198976,-1.8591250665558716 V109.88327322598666 z" id="svg_5" class=""/><path style="fill:#FBB429;" d="M186.03546535510944,125.45018784577545 l-0.7941823200980499,-0.7941823200980499 l-3.2737397005317947,-3.2737397005317947 l-0.7941823200980499,-0.7941823200980499 c-2.583083425806599,0.9798776392458611 -5.8166434373999785,5.2146720616829985 -7.092258066399762,7.886440386497811 l0.39781511840827566,0.39781511840827566 l3.2737397005317947,3.2737397005317947 l0.39781511840827566,0.39781511840827566 c2.6717683248148134,-1.2774245248979104 6.9065627472519475,-4.509174640593162 7.886440386497811,-7.093705983118263 H186.03546535510944 z" id="svg_6" class=""/><path style="fill:#FFFFFF;" d="M186.03546535510944,125.45018784577545 l-0.7941823200980499,-0.7923724241999224 l-3.2737397005317947,-3.275187617250296 l-0.7941823200980499,-0.7923724241999224 c-0.5969036672022263,0.22587500808622746 -1.2256615022114834,0.6251380432130047 -1.8609349624539977,1.1402344158198976 l5.582442908182368,5.582442908182368 c0.5132864767087664,-0.6338255435240133 0.9143594077336702,-1.264031295251772 1.1402344158198976,-1.8609349624539977 V125.45018784577545 z" id="svg_7" class=""/><path style="fill:#FBB429;" d="M141.34225802594537,70.67224057224871 l0.7941823200980499,0.7941823200980499 l3.2737397005317947,3.2737397005317947 l0.7941823200980499,0.7941823200980499 c-0.9798776392458611,2.583083425806599 -5.2146720616829985,5.8166434373999785 -7.886440386497811,7.093705983118263 l-0.39781511840827566,-0.39781511840827566 l-3.2737397005317947,-3.2737397005317947 l-0.39781511840827566,-0.39781511840827566 c1.2774245248979104,-2.6699584289166873 4.509174640593162,-6.9065627472519475 7.092258066399762,-7.886440386497811 H141.34225802594537 z" id="svg_8" class=""/><path style="fill:#FFFFFF;" d="M141.34225802594537,70.67224057224871 l0.7941823200980499,0.7941823200980499 l3.2737397005317947,3.2737397005317947 l0.7941823200980499,0.7941823200980499 c-0.22587500808622746,0.5969036672022263 -0.6251380432130047,1.2271094189299847 -1.1402344158198976,1.8609349624539977 L139.48132306349135,71.8124749880686 C140.11514860701539,71.2973786154617 140.7453543587431,70.89811558033492 141.34225802594537,70.67224057224871 z" id="svg_9" class=""/><path style="fill:#FBB429;" d="M125.77498142697692,65.1918757927207 l0.7941823200980499,0.7941823200980499 l3.2737397005317947,3.2737397005317947 l0.7941823200980499,0.7941823200980499 c-0.9798776392458611,2.583083425806599 -5.2146720616829985,5.8166434373999785 -7.886440386497811,7.092258066399762 l-0.39781511840827566,-0.39781511840827566 l-3.2737397005317947,-3.2737397005317947 l-0.39781511840827566,-0.39781511840827566 c1.2774245248979104,-2.6699584289166873 4.509174640593162,-6.9065627472519475 7.092258066399762,-7.886440386497811 L125.77498142697692,65.1918757927207 z" id="svg_10" class=""/><g id="svg_11" class="">
	<path style="fill:#FFFFFF;" d="M125.77498142697692,65.1918757927207 l0.7941823200980499,0.7941823200980499 l3.275187617250296,3.2737397005317947 l0.7923724241999224,0.7941823200980499 c-0.22587500808622746,0.5969036672022263 -0.6251380432130047,1.2271094189299847 -1.1384245199217706,1.8609349624539977 L123.91440844370254,66.33211020854057 C124.54787200804694,65.8170138359337 125.17807775977471,65.41738882162728 125.77498142697692,65.1918757927207 z" id="svg_12"/>
	<path style="fill:#FFFFFF;" d="M114.14712423987136,138.99255291391958 l9.605117531359042,13.656026530546493 l3.063067817989832,-3.703408986747102 l-5.43547936125447,-14.360076034917826 c0.6819687744141869,-0.5885781460708429 -0.6001614798188546,0.5784427290413326 2.205177162277719,-1.9460000696659583 c2.805338642096573,-2.5244427987072893 15.132539604238353,-13.856562996058944 26.297425420603087,-22.933552904344577 l32.155696463659986,45.45553548145512 l2.9323933341450763,-2.9323933341450763 l-17.773901677964634,-56.6555332782435 c7.264560155901434,-5.988583547722027 12.885372857124091,-10.765260802058332 14.399893744676616,-12.495883259847199 c4.629351728228783,-5.2899637310450744 8.817450836494249,-12.345299921123047 5.512218947335047,-18.95757359533958 c-6.614083570114655,-3.3070417850573275 -13.667609864294503,0.882867219106263 -18.95757359533958,5.510409051436921 c-1.7320703745073687,1.5148828667321492 -6.506937732945547,7.135695567954806 -12.495883259847199,14.399893744676616 L98.99974348926837,66.25681853917851 l-2.9323933341450763,2.9323933341450763 l45.45408756473661,32.155696463659986 c-9.075180012387507,11.166695712262863 -20.408748126457663,23.49172479932689 -22.93174300844645,26.297425420603087 c-2.526252694605419,2.805338642096573 -1.357421923595116,1.5232083878635332 -1.9460000696659583,2.205177162277719 l-14.360076034917826,-5.43547936125447 l-3.703408986747102,3.063067817989832 l13.656026530546493,9.605117531359042 c-1.4830286989251187,2.551229257999568 -0.638531272859143,3.3957266840655422 1.9126979851404247,1.9126979851404247 H114.14712423987136 z" id="svg_13"/>
</g><g id="svg_14" class="">
	<path style="fill:#C8CACC;" d="M114.14712423987136,138.99255291391958 l9.605117531359042,13.656026530546493 l0.7387995056153694,-0.8926406569561495 l-9.31082845832362,-13.475398919913435 l-1.0316406619322882,0.7123750255027168 H114.14712423987136 z" id="svg_15"/>
	<path style="fill:#C8CACC;" d="M99.4710403811406,126.73593789180474 l-0.8926406569561495,0.7391614847949941 l13.656026530546493,9.605117531359042 l0.7123750255027168,-1.0316406619322882 l-13.47720881581156,-9.312638354221747 H99.4710403811406 z" id="svg_16"/>
	<path style="fill:#C8CACC;" d="M149.88388072756507,109.70445551125172 l32.155696463659986,45.45553548145512 l1.130098998790387,-1.131908894688514 l-31.38649070695609,-45.873621433922416 L149.88388072756507,109.70445551125172 z" id="svg_17"/>
	<path style="fill:#C8CACC;" d="M97.19563925801553,68.05730297863508 l-1.130098998790387,1.131908894688514 l45.45408756473661,32.155696463659986 l1.5499948471558098,-1.8993047554942866 L97.19382936211741,68.05911287453318 L97.19563925801553,68.05730297863508 z" id="svg_18"/>
</g><path style="fill:#15BDB1;" d="M184.345022586259,66.880508665673 c-0.6504765857867798,-0.6504765857867798 -1.4377813014719472,-1.1083802480128655 -2.312322999446827,-1.3809505702707647 l-0.5299375189715332,1.4797708863084893 c0.551656269749055,0.329401053459082 1.0700104549725766,0.7304739844839849 1.5431172427429278,1.2021328555358346 c0.47129689187222434,0.47310678777035126 0.8727318020767536,0.9914609729938726 1.2021328555358346,1.5416693260244267 l1.4797708863084893,-0.5299375189715332 c-0.2725703222578994,-0.8727318020767536 -0.7304739844839849,-1.6600365177619205 -1.3809505702707647,-2.312322999446827 H184.345022586259 zM180.85083756533535,65.24870652392187 L180.85083756533535,65.24870652392187 c-1.3490964024637324,-0.1621666724721635 -2.828867288772222,0.05031510596792572 -4.295244945434572,0.6135547094649927 c1.3208620264529545,-0.11040364978573618 2.6482396781391646,0.0818072945953325 3.8670235759377665,0.5784427290413326 L180.85083756533535,65.24870652392187 zM184.78663718540196,70.80436297281196 L184.78663718540196,70.80436297281196 c0.4980833511645013,1.2187838977986014 0.6888463788270686,2.5447136327663107 0.5784427290413326,3.8670235759377665 c0.5650494993951944,-1.4663776566623508 0.7757213819371555,-2.9457865637912137 0.6135547094649927,-4.295244945434572 L184.78663718540196,70.80436297281196 z" id="svg_19" class=""/><path style="fill:#FFFFFF;" d="M104.24445982286026,147.8939829200869 l0.011583333748011676,-0.011583333748011676 l0.19402084027919544,-0.18714323586631365 l0.1922109443810688,-0.185695319147812 l0.195468756997697,-0.1889531317644405 l0.195468756997697,-0.1889531317644405 l0.195468756997697,-0.1889531317644405 l0.1972786528958239,-0.19076302766256725 l0.1972786528958239,-0.19076302766256725 l0.19908854879395066,-0.19076302766256725 l0.20053646551245208,-0.1922109443810688 l0.19908854879395066,-0.1922109443810688 l0.20053646551245208,-0.19402084027919544 l0.20053646551245208,-0.195468756997697 l0.2023463614105789,-0.195468756997697 l0.2023463614105789,-0.1972786528958239 l0.20379427812908021,-0.1972786528958239 l0.2056041740272072,-0.1972786528958239 l0.2056041740272072,-0.19908854879395066 l0.2056041740272072,-0.19908854879395066 l0.20741406992533404,-0.20053646551245208 l0.20741406992533404,-0.2023463614105789 l0.20886198664383537,-0.2023463614105789 l0.20886198664383537,-0.2023463614105789 l0.20886198664383537,-0.2041562573087056 l0.21067188254196229,-0.2056041740272072 l0.21067188254196229,-0.2056041740272072 l0.212481778440089,-0.20741406992533404 l0.212481778440089,-0.20741406992533404 l0.21392969515859045,-0.20886198664383537 l0.21392969515859045,-0.21067188254196229 l0.21392969515859045,-0.21067188254196229 l-1.1952552511229533,-1.2169740019004747 l-0.21392969515859045,0.20886198664383537 l-0.212481778440089,0.20886198664383537 l-0.212481778440089,0.20741406992533404 l-0.212481778440089,0.20886198664383537 l-0.21067188254196229,0.2056041740272072 l-0.20886198664383537,0.2056041740272072 l-0.20886198664383537,0.2041562573087056 l-0.20886198664383537,0.20379427812908021 l-0.20741406992533404,0.2023463614105789 l-0.20741406992533404,0.20053646551245208 l-0.20741406992533404,0.20053646551245208 l-0.2056041740272072,0.20053646551245208 l-0.2056041740272072,0.19908854879395066 l-0.2056041740272072,0.19908854879395066 l-0.20379427812908021,0.1972786528958239 l-0.20379427812908021,0.1972786528958239 l-0.2023463614105789,0.195468756997697 l-0.2023463614105789,0.19402084027919544 l-0.20053646551245208,0.195468756997697 l-0.20053646551245208,0.19402084027919544 l-0.20053646551245208,0.1922109443810688 l-0.19908854879395066,0.1922109443810688 l-0.19908854879395066,0.19076302766256725 l-0.1972786528958239,0.19076302766256725 l-0.1972786528958239,0.1889531317644405 l-0.1972786528958239,0.1889531317644405 l-0.195468756997697,0.1889531317644405 l-0.19402084027919544,0.18714323586631365 l-0.19402084027919544,0.1889531317644405 l-0.19402084027919544,0.185695319147812 l-0.011583333748011676,0.011583333748011676 l1.1836719173749413,1.2289193148281123 L104.24445982286026,147.8939829200869 zM199.83338772406907,147.1899334157156 L199.83338772406907,147.1899334157156 l-0.2023463614105789,0.5284896022530321 l-0.2023463614105789,0.5216119978401499 l-0.2023463614105789,0.5132864767087664 l-0.2023463614105789,0.5049609555773832 l-0.20379427812908021,0.4980833511645013 l-0.2041562573087056,0.48975783003311774 l-0.20379427812908021,0.4832422047998619 l-0.20379427812908021,0.47491668366847806 l-0.2041562573087056,0.46803907925559607 l-0.2056041740272072,0.4597135581242127 l-0.20379427812908021,0.45464584960945814 l-0.2056041740272072,0.44632032847807435 l-0.2056041740272072,0.4379948073466913 l-0.2056041740272072,0.4314791821134347 l-0.010135417029510213,0.019908854879395057 l1.5329818257134178,0.7507448185430063 l0.015203125544265334,-0.030044271908905296 l0.21067188254196229,-0.4430625158614465 l0.21067188254196229,-0.4495781410947022 l0.20886198664383537,-0.456455745507584 l0.21067188254196229,-0.46297137074084116 l0.20886198664383537,-0.46984897515372276 l0.20886198664383537,-0.47817449628510605 l0.20886198664383537,-0.48469012151836277 l0.20741406992533404,-0.49337762182937167 l0.20741406992533404,-0.4980833511645013 l0.20886198664383537,-0.5082187681940115 l0.2056041740272072,-0.5150963726068936 l0.20741406992533404,-0.5216119978401499 l0.2056041740272072,-0.5299375189715332 l0.2056041740272072,-0.5382630401029163 l-1.5948802654293548,-0.6052291883336102 L199.83338772406907,147.1899334157156 zM194.58867139047717,158.37509006613936 L194.58867139047717,158.37509006613936 l-0.10533594127098117,0.17375000622017503 l-0.20886198664383537,0.3442421998237219 l-0.20886198664383537,0.33772657459046546 l-0.20886198664383537,0.3326588660757104 l-0.21067188254196229,0.32433334494432686 l-0.21067188254196229,0.31781771971107026 l-0.21067188254196229,0.312750011196315 l-0.21067188254196229,0.30587240678343336 l-0.21067188254196229,0.3008046982686785 l-0.21067188254196229,0.2942890730354216 l-0.21067188254196229,0.2892213645206665 l-0.212481778440089,0.2827057392874098 l-0.21067188254196229,0.2776380307726548 l-0.212481778440089,0.2707604263597728 l-0.212481778440089,0.26569271784501775 l-0.21392969515859045,0.26098698850988816 l-0.212481778440089,0.2541093840970061 l-0.212481778440089,0.24904167558225082 l-0.212481778440089,0.2425260503489944 l-0.21392969515859045,0.23890625855274086 l-0.212481778440089,0.23239063331948392 l-0.21392969515859045,0.2273229248047292 l-0.21392969515859045,0.22225521628997374 l-0.21392969515859045,0.2171875077752185 l-0.03692187632178723,0.03692187632178723 l1.1952552511229533,1.2187838977986014 l0.05176302268642719,-0.05176302268642719 l0.22913282070285565,-0.23239063331948392 l0.2273229248047292,-0.2374583418342391 l0.2273229248047292,-0.2425260503489944 l0.2273229248047292,-0.24759375886374926 l0.22587500808622746,-0.2522994881988792 l0.22587500808622746,-0.2573671967136341 l0.22406511218810077,-0.264244801126516 l0.22406511218810077,-0.2693125096412715 l0.22406511218810077,-0.275828134874528 l0.22406511218810077,-0.2790859474911562 l0.22225521628997374,-0.2859635519040383 l0.22225521628997374,-0.29103126041879324 l0.22225521628997374,-0.29609896893354887 l0.22080729957147247,-0.3026145941668047 l0.22080729957147247,-0.3091302194000618 l0.22080729957147247,-0.3141979279148169 l0.21899740367334575,-0.32107553232769875 l0.22080729957147247,-0.3261432408424539 l0.2171875077752185,-0.3326588660757104 l0.21899740367334575,-0.33772657459046546 l0.2171875077752185,-0.3442421998237219 l0.21899740367334575,-0.35111980423660366 l0.2171875077752185,-0.35763542946986077 l0.10352604537285429,-0.1755599021183019 l-1.4627578648660973,-0.8792474273100098 L194.58867139047717,158.37509006613936 zM185.73791846945738,168.05549926686047 L185.73791846945738,168.05549926686047 l-0.005067708514755107,0.003257812616628285 l-0.21899740367334575,0.13212240056325808 l-0.21899740367334575,0.1288645879466298 l-0.21899740367334575,0.12379687943187481 l-0.21899740367334575,0.12053906681524655 l-0.22080729957147247,0.11691927501899271 l-0.21899740367334575,0.11185156650423768 l-0.22080729957147247,0.11040364978573618 l-0.22080729957147247,0.10533594127098117 l-0.22080729957147247,0.10207812865435271 l-0.22080729957147247,0.09882031603772456 l-0.22225521628997374,0.09520052424147095 l-0.22225521628997374,0.09194271162484266 l-0.22225521628997374,0.08868489900821445 l-0.22225521628997374,0.08687500311008757 l-0.22406511218810077,0.0818072945953325 l-0.22406511218810077,0.08035937787683096 l-0.22406511218810077,0.07673958608057742 l-0.22406511218810077,0.073481773463949 l-0.22587500808622746,0.07203385674544763 l-0.22587500808622746,0.0669661482306925 l-0.2273229248047292,0.06515625233256568 l-0.22587500808622746,0.06370833561406412 l-0.2273229248047292,0.05864062709930915 l-0.2273229248047292,0.05683073120118224 l-0.22913282070285565,0.05357291858455401 l-0.22913282070285565,0.05176302268642719 l-0.22913282070285565,0.04850521006979883 l-0.2305807374213574,0.04669531417167206 l-0.2305807374213574,0.04343750155504372 l-0.2305807374213574,0.04162760565691698 l-0.23239063331948392,0.04017968893841555 l-0.23239063331948392,0.03692187632178723 l-0.23239063331948392,0.035111980423660476 l-0.23420052921761078,0.03330208452553356 l-0.013393229646138509,0.0018098958981268265 l0.2171875077752185,1.6937005814670811 l0.02859635519040387,-0.005067708514755107 l0.2508515714803778,-0.035111980423660476 l0.24904167558225082,-0.03692187632178723 l0.24759375886374926,-0.04017968893841555 l0.24904167558225082,-0.04162760565691698 l0.24904167558225082,-0.0452473974531706 l0.24904167558225082,-0.04669531417167206 l0.24759375886374926,-0.05031510596792572 l0.24759375886374926,-0.05357291858455401 l0.24578386296562255,-0.05502083530305545 l0.24759375886374926,-0.05864062709930915 l0.24759375886374926,-0.06189843971593748 l0.24759375886374926,-0.06515625233256568 l0.24759375886374926,-0.0669661482306925 l0.2439739670674958,-0.07022396084732069 l0.24578386296562255,-0.073481773463949 l0.2439739670674958,-0.07673958608057742 l0.2439739670674958,-0.08035937787683096 l0.24578386296562255,-0.08361719049345928 l0.2439739670674958,-0.08687500311008757 l0.2425260503489944,-0.09013281572671578 l0.2439739670674958,-0.09375260752296949 l0.2425260503489944,-0.09701042013959772 l0.2425260503489944,-0.100268232756226 l0.2425260503489944,-0.10533594127098117 l0.2425260503489944,-0.10859375388760945 l0.24071615445086758,-0.11185156650423768 l0.24071615445086758,-0.11547135830049124 l0.24071615445086758,-0.11872917091711961 l0.24071615445086758,-0.12379687943187481 l0.24071615445086758,-0.12705469204850287 l0.23890625855274086,-0.13212240056325808 l0.23890625855274086,-0.13538021317988638 l0.23890625855274086,-0.13863802579651463 l0.2374583418342391,-0.14370573431126996 l0.005067708514755107,-0.003257812616628285 l-0.8911927402376468,-1.4544323437347146 L185.73791846945738,168.05549926686047 zM173.07154301600664,170.9860827051074 L173.07154301600664,170.9860827051074 h-0.02859635519040387 l-0.24578386296562255,-0.0018098958981268265 l-0.24759375886374926,-0.003257812616628285 l-0.24759375886374926,-0.003257812616628285 l-0.24904167558225082,-0.005067708514755107 l-0.24904167558225082,-0.005067708514755107 l-0.24904167558225082,-0.006515625233256562 l-0.2508515714803778,-0.006515625233256562 l-0.2508515714803778,-0.008325521131383394 l-0.2522994881988792,-0.008325521131383394 l-0.2522994881988792,-0.008325521131383394 l-0.2522994881988792,-0.008325521131383394 l-0.2522994881988792,-0.010135417029510213 l-0.2541093840970061,-0.010135417029510213 l-0.2559192799951327,-0.008325521131383394 l-0.2559192799951327,-0.010135417029510213 l-0.2559192799951327,-0.010135417029510213 l-0.2559192799951327,-0.011583333748011676 l-0.2559192799951327,-0.010135417029510213 l-0.2573671967136341,-0.010135417029510213 l-0.2573671967136341,-0.010135417029510213 l-0.25917709261176103,-0.010135417029510213 l-0.25917709261176103,-0.010135417029510213 l-0.25917709261176103,-0.010135417029510213 l-0.26098698850988816,-0.010135417029510213 l-0.26098698850988816,-0.010135417029510213 l-0.262434905228389,-0.010135417029510213 l-0.262434905228389,-0.008325521131383394 l-0.262434905228389,-0.008325521131383394 l-0.264244801126516,-0.008325521131383394 l-0.264244801126516,-0.008325521131383394 l-0.264244801126516,-0.006515625233256562 l-0.26569271784501775,-0.006515625233256562 l-0.26569271784501775,-0.005067708514755107 l-0.02678645929227699,-0.0018098958981268265 l-0.030044271908905296,1.7070938111132183 h0.023528646675648704 l0.26098698850988816,0.005067708514755107 l0.26098698850988816,0.006515625233256562 l0.26098698850988816,0.006515625233256562 l0.25917709261176103,0.008325521131383394 l0.26098698850988816,0.008325521131383394 l0.26098698850988816,0.008325521131383394 l0.25917709261176103,0.008325521131383394 l0.25917709261176103,0.010135417029510213 l0.25917709261176103,0.010135417029510213 l0.25917709261176103,0.010135417029510213 l0.2573671967136341,0.010135417029510213 l0.2573671967136341,0.010135417029510213 l0.2573671967136341,0.010135417029510213 l0.2573671967136341,0.010135417029510213 l0.2573671967136341,0.010135417029510213 l0.2573671967136341,0.010135417029510213 l0.2573671967136341,0.010135417029510213 l0.2573671967136341,0.010135417029510213 l0.2573671967136341,0.010135417029510213 l0.2559192799951327,0.010135417029510213 l0.2559192799951327,0.010135417029510213 l0.2573671967136341,0.010135417029510213 l0.2541093840970061,0.008325521131383394 l0.2559192799951327,0.008325521131383394 l0.2559192799951327,0.008325521131383394 l0.2559192799951327,0.006515625233256562 l0.2559192799951327,0.006515625233256562 l0.2559192799951327,0.006515625233256562 l0.2541093840970061,0.005067708514755107 l0.2541093840970061,0.005067708514755107 l0.2541093840970061,0.003257812616628285 l0.2541093840970061,0.003257812616628285 l0.2541093840970061,0.0018098958981268265 h0.02859635519040387 l0.006515625233256562,-1.7070938111132183 L173.07154301600664,170.9860827051074 zM159.35506596246273,170.83405144966474 L159.35506596246273,170.83405144966474 l-0.22080729957147247,0.01665104226276678 l-0.2776380307726548,0.023528646675648704 l-0.280895843389283,0.0249765633941502 l-0.2776380307726548,0.02678645929227699 l-0.280895843389283,0.02859635519040387 l-0.280895843389283,0.03185416780703208 l-0.280895843389283,0.03330208452553356 l-0.280895843389283,0.035111980423660476 l-0.2827057392874098,0.03692187632178723 l-0.2827057392874098,0.04162760565691698 l-0.28415365600591136,0.04343750155504372 l-0.28415365600591136,0.04669531417167206 l-0.28415365600591136,0.04669531417167206 l-0.28415365600591136,0.05176302268642719 l-0.2859635519040383,0.05357291858455401 l-0.2859635519040383,0.05502083530305545 l-0.2874114686225394,0.05864062709930915 l-0.2874114686225394,0.06189843971593748 l-0.2874114686225394,0.06515625233256568 l-0.2892213645206665,0.0684140649491939 l-0.2892213645206665,0.07203385674544763 l-0.29103126041879324,0.073481773463949 l-0.2892213645206665,0.07529166936207576 l-0.29103126041879324,0.08035937787683096 l-0.29103126041879324,0.08361719049345928 l-0.29103126041879324,0.08687500311008757 l-0.2924791771372946,0.09013281572671578 l-0.2924791771372946,0.09375260752296949 l-0.2942890730354216,0.09701042013959772 l-0.2942890730354216,0.10207812865435271 l-0.038369793040288605,0.013393229646138509 l0.5784427290413326,1.6068255783569922 l0.023528646675648704,-0.008325521131383394 l0.2776380307726548,-0.09520052424147095 l0.275828134874528,-0.09013281572671578 l0.275828134874528,-0.08868489900821445 l0.275828134874528,-0.08542708639158618 l0.275828134874528,-0.08035937787683096 l0.275828134874528,-0.08035937787683096 l0.27401823897640126,-0.07529166936207576 l0.27401823897640126,-0.073481773463949 l0.27401823897640126,-0.07022396084732069 l0.27401823897640126,-0.0669661482306925 l0.2725703222578994,-0.06515625233256568 l0.2725703222578994,-0.06008854381781059 l0.2725703222578994,-0.05864062709930915 l0.2707604263597728,-0.05502083530305545 l0.2707604263597728,-0.05357291858455401 l0.2725703222578994,-0.05031510596792572 l0.2707604263597728,-0.04669531417167206 l0.2707604263597728,-0.04669531417167206 l0.2707604263597728,-0.04343750155504372 l0.2693125096412715,-0.04017968893841555 l0.2707604263597728,-0.038369793040288605 l0.2693125096412715,-0.03692187632178723 l0.2693125096412715,-0.03330208452553356 l0.2693125096412715,-0.03185416780703208 l0.2675026137431445,-0.030044271908905296 l0.2675026137431445,-0.02859635519040387 l0.2693125096412715,-0.02678645929227699 l0.26569271784501775,-0.023528646675648704 l0.2675026137431445,-0.021718750777521886 l0.22080729957147247,-0.01665104226276678 l-0.13393229646138496,-1.7020261025984635 L159.35506596246273,170.83405144966474 zM145.99658631756827,174.71772606786527 L145.99658631756827,174.71772606786527 l-0.2273229248047292,0.12705469204850287 l-0.3026145941668047,0.17375000622017503 l-0.3026145941668047,0.17881771473493038 l-0.3026145941668047,0.18207552735155833 l-0.3044244900649322,0.1889531317644405 l-0.3026145941668047,0.1922109443810688 l-0.3044244900649322,0.1972786528958239 l-0.3026145941668047,0.20053646551245208 l-0.3044244900649322,0.20741406992533404 l-0.3044244900649322,0.21067188254196229 l-0.30587240678343336,0.2171875077752185 l-0.30587240678343336,0.22225521628997374 l-0.3044244900649322,0.2273229248047292 l-0.30587240678343336,0.2305807374213574 l-0.30587240678343336,0.2374583418342391 l-0.30587240678343336,0.2425260503489944 l-0.3076823026815603,0.24759375886374926 l-0.3076823026815603,0.2522994881988792 l-0.3076823026815603,0.2573671967136341 l-0.3091302194000618,0.262434905228389 l-0.3091302194000618,0.2707604263597728 l-0.3076823026815603,0.27401823897640126 l-0.3091302194000618,0.2790859474911562 l-0.07673958608057742,0.07203385674544763 l1.1637630624955462,1.2488281697075068 l0.06515625233256568,-0.05864062709930915 l0.2975468856520496,-0.2707604263597728 l0.2975468856520496,-0.264244801126516 l0.29609896893354887,-0.2573671967136341 l0.29609896893354887,-0.2522994881988792 l0.2942890730354216,-0.24759375886374926 l0.29609896893354887,-0.2425260503489944 l0.2924791771372946,-0.2374583418342391 l0.2942890730354216,-0.2305807374213574 l0.2924791771372946,-0.22587500808622746 l0.2924791771372946,-0.22225521628997374 l0.2924791771372946,-0.2171875077752185 l0.29103126041879324,-0.21067188254196229 l0.29103126041879324,-0.2056041740272072 l0.29103126041879324,-0.2023463614105789 l0.2892213645206665,-0.195468756997697 l0.2892213645206665,-0.1922109443810688 l0.2892213645206665,-0.18714323586631365 l0.2892213645206665,-0.18207552735155833 l0.2874114686225394,-0.17736979801642877 l0.2874114686225394,-0.17375000622017503 l0.2859635519040383,-0.16868229770542006 l0.2859635519040383,-0.16542448508879176 l0.2273229248047292,-0.12705469204850287 l-0.8441354468863494,-1.484476615643619 L145.99658631756827,174.71772606786527 zM135.3334036441643,183.58549201032744 L135.3334036441643,183.58549201032744 l-0.030044271908905296,0.03185416780703208 l-0.3141979279148169,0.35763542946986077 l-0.30587240678343336,0.35111980423660366 l-0.30587240678343336,0.3460520957218488 l-0.30587240678343336,0.3427942831052205 l-0.3044244900649322,0.33772657459046546 l-0.3044244900649322,0.3344687619738376 l-0.3044244900649322,0.329401053459082 l-0.3026145941668047,0.32433334494432686 l-0.3026145941668047,0.32107553232769875 l-0.3008046982686785,0.31781771971107026 l-0.3008046982686785,0.312750011196315 l-0.3008046982686785,0.3091302194000618 l-0.29935678155017686,0.3044244900649322 l-0.29935678155017686,0.3008046982686785 l-0.29935678155017686,0.29609896893354887 l-0.2975468856520496,0.2924791771372946 l-0.2975468856520496,0.2892213645206665 l-0.29609896893354887,0.28415365600591136 l-0.29609896893354887,0.280895843389283 l-0.05683073120118224,0.05176302268642719 l1.1619531665974192,1.2488281697075068 l0.06370833561406412,-0.05864062709930915 l0.3044244900649322,-0.2874114686225394 l0.3044244900649322,-0.29103126041879324 l0.3044244900649322,-0.2942890730354216 l0.3044244900649322,-0.29935678155017686 l0.30587240678343336,-0.3044244900649322 l0.30587240678343336,-0.3076823026815603 l0.30587240678343336,-0.312750011196315 l0.3076823026815603,-0.3141979279148169 l0.3076823026815603,-0.31926563642957156 l0.3091302194000618,-0.32252344904619945 l0.3076823026815603,-0.3275911575609547 l0.3091302194000618,-0.3326588660757104 l0.3091302194000618,-0.33591667869233827 l0.3109401152981883,-0.33953647048859215 l0.3109401152981883,-0.3442421998237219 l0.3109401152981883,-0.3493099083384773 l0.312750011196315,-0.3529297001347307 l0.312750011196315,-0.35618751275135857 l0.3044244900649322,-0.34786199161997566 l0.030044271908905296,-0.03185416780703208 l-1.2774245248979104,-1.131908894688514 L135.3334036441643,183.58549201032744 zM125.68810642386684,193.00346630582015 L125.68810642386684,193.00346630582015 l-0.2056041740272072,0.1621666724721635 l-0.28415365600591136,0.22225521628997374 l-0.2859635519040383,0.21899740367334575 l-0.28415365600591136,0.2157395910567173 l-0.28415365600591136,0.212481778440089 l-0.2827057392874098,0.20886198664383537 l-0.280895843389283,0.20379427812908021 l-0.280895843389283,0.20053646551245208 l-0.280895843389283,0.1972786528958239 l-0.2790859474911562,0.19402084027919544 l-0.2790859474911562,0.19076302766256725 l-0.2790859474911562,0.18714323586631365 l-0.2776380307726548,0.18388542324968518 l-0.275828134874528,0.18062761063305696 l-0.275828134874528,0.1755599021183019 l-0.275828134874528,0.17230208950167356 l-0.27401823897640126,0.17049219360354684 l-0.27401823897640126,0.16542448508879176 l-0.27401823897640126,0.1621666724721635 l-0.2707604263597728,0.15890885985553518 l-0.2707604263597728,0.15565104723890677 l-0.2707604263597728,0.15203125544265325 l-0.2693125096412715,0.15058333872415183 l-0.2693125096412715,0.14551563020939687 l-0.2675026137431445,0.14225781759276834 l-0.1288645879466298,0.0669661482306925 l0.7825989863500377,1.5181406793487782 l0.14225781759276834,-0.073481773463949 l0.280895843389283,-0.15058333872415183 l0.280895843389283,-0.15203125544265325 l0.280895843389283,-0.15565104723890677 l0.2827057392874098,-0.16035677657403644 l0.2827057392874098,-0.1621666724721635 l0.2827057392874098,-0.16542448508879176 l0.28415365600591136,-0.17049219360354684 l0.28415365600591136,-0.17230208950167356 l0.2859635519040383,-0.1755599021183019 l0.2859635519040383,-0.18062761063305696 l0.2874114686225394,-0.18207552735155833 l0.2874114686225394,-0.18714323586631365 l0.2874114686225394,-0.19076302766256725 l0.2892213645206665,-0.19402084027919544 l0.2892213645206665,-0.1972786528958239 l0.29103126041879324,-0.20053646551245208 l0.29103126041879324,-0.2041562573087056 l0.29103126041879324,-0.20886198664383537 l0.2924791771372946,-0.212481778440089 l0.2924791771372946,-0.2157395910567173 l0.2924791771372946,-0.21899740367334575 l0.2942890730354216,-0.22225521628997374 l0.29609896893354887,-0.2273229248047292 l0.2942890730354216,-0.2305807374213574 l0.20379427812908021,-0.1621666724721635 l-1.0548073294283116,-1.342580777230477 L125.68810642386684,193.00346630582015 zM114.13192111432708,199.55890924883553 L114.13192111432708,199.55890924883553 l-0.22406511218810077,0.073481773463949 l-0.2508515714803778,0.08035937787683096 l-0.2508515714803778,0.07673958608057742 l-0.24904167558225082,0.07529166936207576 l-0.24759375886374926,0.07203385674544763 l-0.24759375886374926,0.0684140649491939 l-0.24578386296562255,0.06515625233256568 l-0.24578386296562255,0.06370833561406412 l-0.2439739670674958,0.06008854381781059 l-0.2425260503489944,0.05683073120118224 l-0.2425260503489944,0.05357291858455401 l-0.2425260503489944,0.05176302268642719 l-0.24071615445086758,0.04850521006979883 l-0.23890625855274086,0.04669531417167206 l-0.23890625855274086,0.04343750155504372 l-0.23890625855274086,0.04162760565691698 l-0.23564844593611223,0.038369793040288605 l-0.23564844593611223,0.035111980423660476 l-0.23564844593611223,0.03330208452553356 l-0.23420052921761078,0.030044271908905296 l-0.23239063331948392,0.02859635519040387 l-0.23239063331948392,0.0249765633941502 l-0.2305807374213574,0.023528646675648704 l-0.2305807374213574,0.019908854879395057 l-0.2305807374213574,0.01665104226276678 l-0.2273229248047292,0.015203125544265334 l-0.2273229248047292,0.011583333748011676 l-0.2273229248047292,0.010135417029510213 l-0.22587500808622746,0.008325521131383394 l-0.22406511218810077,0.005067708514755107 l-0.22225521628997374,0.003257812616628285 h-0.22225521628997374 l-0.22225521628997374,-0.0018098958981268265 l-0.21899740367334575,-0.003257812616628285 l-0.08542708639158618,-0.003257812616628285 l-0.06189843971593748,1.705283915215091 l0.10533594127098117,0.003257812616628285 l0.23890625855274086,0.005067708514755107 l0.23890625855274086,0.0018098958981268265 h0.24071615445086758 l0.2425260503489944,-0.003257812616628285 l0.2425260503489944,-0.006515625233256562 l0.2425260503489944,-0.008325521131383394 l0.2439739670674958,-0.010135417029510213 l0.24759375886374926,-0.015203125544265334 l0.24578386296562255,-0.01665104226276678 l0.24759375886374926,-0.018460938160893635 l0.24759375886374926,-0.021718750777521886 l0.24904167558225082,-0.023528646675648704 l0.2508515714803778,-0.02859635519040387 l0.2508515714803778,-0.030044271908905296 l0.2522994881988792,-0.03330208452553356 l0.2508515714803778,-0.035111980423660476 l0.2541093840970061,-0.03692187632178723 l0.2541093840970061,-0.04162760565691698 l0.2559192799951327,-0.0452473974531706 l0.2559192799951327,-0.0452473974531706 l0.2573671967136341,-0.05031510596792572 l0.2573671967136341,-0.05176302268642719 l0.2573671967136341,-0.05502083530305545 l0.25917709261176103,-0.05864062709930915 l0.26098698850988816,-0.06189843971593748 l0.26098698850988816,-0.06370833561406412 l0.26098698850988816,-0.0669661482306925 l0.262434905228389,-0.07022396084732069 l0.264244801126516,-0.073481773463949 l0.264244801126516,-0.07673958608057742 l0.264244801126516,-0.07854948197870416 l0.26569271784501775,-0.0818072945953325 l0.26569271784501775,-0.08542708639158618 l0.22406511218810077,-0.073481773463949 l-0.5266797063549051,-1.6234766206197588 L114.13192111432708,199.55890924883553 zM101.19804304713318,200.08884676780707 L101.19804304713318,200.08884676780707 l-0.08361719049345928,-0.023528646675648704 l-0.195468756997697,-0.05683073120118224 l-0.19402084027919544,-0.06008854381781059 l-0.195468756997697,-0.06189843971593748 l-0.19402084027919544,-0.06370833561406412 l-0.19402084027919544,-0.0669661482306925 l-0.1922109443810688,-0.0669661482306925 l-0.1889531317644405,-0.0684140649491939 l-0.19076302766256725,-0.07203385674544763 l-0.1889531317644405,-0.073481773463949 l-0.18714323586631365,-0.07529166936207576 l-0.18714323586631365,-0.07673958608057742 l-0.185695319147812,-0.07854948197870416 l-0.18388542324968518,-0.08035937787683096 l-0.18388542324968518,-0.0818072945953325 l-0.18207552735155833,-0.08542708639158618 l-0.18062761063305696,-0.08542708639158618 l-0.18062761063305696,-0.08687500311008757 l-0.18062761063305696,-0.08868489900821445 l-0.17736979801642877,-0.09013281572671578 l-0.1755599021183019,-0.09194271162484266 l-0.17736979801642877,-0.09520052424147095 l-0.1755599021183019,-0.09520052424147095 l-0.17375000622017503,-0.09845833685809921 l-0.17230208950167356,-0.09882031603772456 l-0.17230208950167356,-0.100268232756226 l-0.17230208950167356,-0.10352604537285429 l-0.16868229770542006,-0.10352604537285429 l-0.1690442768850452,-0.10533594127098117 l-0.1672343809869186,-0.10714583716910797 l-0.1672343809869186,-0.10859375388760945 l-0.16542448508879176,-0.11040364978573618 l-0.16542448508879176,-0.11040364978573618 l-0.1621666724721635,-0.11366146240236447 l-0.1621666724721635,-0.11366146240236447 l-0.1621666724721635,-0.11691927501899271 l-0.16035677657403644,-0.11691927501899271 l-0.15890885985553518,-0.11872917091711961 l-0.15709896395740822,-0.12053906681524655 l-0.15709896395740822,-0.12053906681524655 l-0.15565104723890677,-0.1219869835337479 l-0.07022396084732069,-0.05683073120118224 l-1.075078163487332,1.3259297349677097 l0.08035937787683096,0.06515625233256568 l0.1672343809869186,0.13212240056325808 l0.16868229770542006,0.1303125046651312 l0.1690442768850452,0.1288645879466298 l0.17230208950167356,0.1288645879466298 l0.17230208950167356,0.12705469204850287 l0.17375000622017503,0.12379687943187481 l0.1755599021183019,0.12379687943187481 l0.17736979801642877,0.1219869835337479 l0.17736979801642877,0.11872917091711961 l0.17881771473493038,0.11872917091711961 l0.18062761063305696,0.11691927501899271 l0.18062761063305696,0.11547135830049124 l0.18207552735155833,0.11547135830049124 l0.18388542324968518,0.11185156650423768 l0.18388542324968518,0.11040364978573618 l0.18714323586631365,0.10859375388760945 l0.18714323586631365,0.10714583716910797 l0.1889531317644405,0.10533594127098117 l0.19076302766256725,0.10352604537285429 l0.19076302766256725,0.10207812865435271 l0.1922109443810688,0.100268232756226 l0.19402084027919544,0.09845833685809921 l0.19402084027919544,0.09520052424147095 l0.195468756997697,0.09520052424147095 l0.1972786528958239,0.09375260752296949 l0.1972786528958239,0.09013281572671578 l0.19908854879395066,0.08868489900821445 l0.20053646551245208,0.08687500311008757 l0.2023463614105789,0.08542708639158618 l0.20053646551245208,0.08361719049345928 l0.20379427812908021,0.0818072945953325 l0.2056041740272072,0.08035937787683096 l0.2056041740272072,0.07673958608057742 l0.20741406992533404,0.07673958608057742 l0.20886198664383537,0.073481773463949 l0.20886198664383537,0.07203385674544763 l0.21067188254196229,0.0684140649491939 l0.212481778440089,0.0669661482306925 l0.212481778440089,0.06515625233256568 l0.21392969515859045,0.06370833561406412 l0.08361719049345928,0.023528646675648704 l0.47491668366847806,-1.6401276628825259 V200.08884676780707 zM90.4845452677613,192.8394897374499 L90.4845452677613,192.8394897374499 l-0.07022396084732069,-0.08687500311008757 l-0.12379687943187481,-0.15384115134078016 l-0.12379687943187481,-0.15384115134078016 l-0.12053906681524655,-0.15565104723890677 l-0.12053906681524655,-0.15709896395740822 l-0.11872917091711961,-0.15709896395740822 l-0.11691927501899271,-0.15709896395740822 l-0.11691927501899271,-0.15890885985553518 l-0.11547135830049124,-0.16035677657403644 l-0.11366146240236447,-0.16035677657403644 l-0.11366146240236447,-0.16035677657403644 l-0.11040364978573618,-0.1621666724721635 l-0.11040364978573618,-0.1621666724721635 l-0.10859375388760945,-0.16397656837028995 l-0.10714583716910797,-0.16397656837028995 l-0.10714583716910797,-0.16542448508879176 l-0.10352604537285429,-0.16542448508879176 l-0.10352604537285429,-0.1672343809869186 l-0.10207812865435271,-0.1672343809869186 l-0.100268232756226,-0.1672343809869186 l-0.100268232756226,-0.16868229770542006 l-0.09882031603772456,-0.16868229770542006 l-0.09701042013959772,-0.17049219360354684 l-0.09520052424147095,-0.16868229770542006 l-0.09375260752296949,-0.17049219360354684 l-0.09375260752296949,-0.17230208950167356 l-0.09194271162484266,-0.17049219360354684 l-0.09013281572671578,-0.17230208950167356 l-0.09013281572671578,-0.17230208950167356 l-0.08687500311008757,-0.17375000622017503 l-0.08687500311008757,-0.17230208950167356 l-0.08542708639158618,-0.17375000622017503 l-0.08361719049345928,-0.1755599021183019 l-0.0818072945953325,-0.1755599021183019 l-0.08035937787683096,-0.1755599021183019 l-0.07854948197870416,-0.1755599021183019 l-0.07854948197870416,-0.1755599021183019 l-0.07673958608057742,-0.1755599021183019 l-0.07529166936207576,-0.17736979801642877 l-0.073481773463949,-0.1755599021183019 l-0.07203385674544763,-0.17736979801642877 l-0.07203385674544763,-0.17736979801642877 l-0.05864062709930915,-0.14877344282602503 l-1.5898125569146,0.6168125220816205 l0.06370833561406412,0.1621666724721635 l0.07529166936207576,0.1889531317644405 l0.07673958608057742,0.1889531317644405 l0.07854948197870416,0.1889531317644405 l0.08035937787683096,0.18714323586631365 l0.08035937787683096,0.18714323586631365 l0.08361719049345928,0.1889531317644405 l0.08542708639158618,0.18714323586631365 l0.08687500311008757,0.18714323586631365 l0.08687500311008757,0.185695319147812 l0.08868489900821445,0.185695319147812 l0.09013281572671578,0.185695319147812 l0.09194271162484266,0.185695319147812 l0.09375260752296949,0.18388542324968518 l0.09375260752296949,0.18388542324968518 l0.09520052424147095,0.18207552735155833 l0.09882031603772456,0.18207552735155833 l0.09882031603772456,0.18062761063305696 l0.100268232756226,0.18207552735155833 l0.10207812865435271,0.18062761063305696 l0.10352604537285429,0.18062761063305696 l0.10533594127098117,0.17881771473493038 l0.10533594127098117,0.17881771473493038 l0.10859375388760945,0.17881771473493038 l0.10859375388760945,0.17736979801642877 l0.10859375388760945,0.1755599021183019 l0.11185156650423768,0.17736979801642877 l0.11185156650423768,0.1755599021183019 l0.11366146240236447,0.1755599021183019 l0.11547135830049124,0.17375000622017503 l0.11691927501899271,0.17230208950167356 l0.11872917091711961,0.17230208950167356 l0.12053906681524655,0.17230208950167356 l0.12053906681524655,0.17049219360354684 l0.12379687943187481,0.17049219360354684 l0.12379687943187481,0.1690442768850452 l0.12524479615037637,0.16868229770542006 l0.12705469204850287,0.1672343809869186 l0.12705469204850287,0.1672343809869186 l0.1288645879466298,0.16542448508879176 l0.1303125046651312,0.16542448508879176 l0.13212240056325808,0.16542448508879176 l0.07203385674544763,0.08687500311008757 l1.3241198390695825,-1.0765260802058334 H90.4845452677613 zM84.98427163335388,180.96584868737872 L84.98427163335388,180.96584868737872 c-0.49337762182937167,-2.7083282219569753 -0.5733750205265784,-5.438737173871099 0.021718750777521886,-8.138739874696691 l-1.6669141221748038,-0.36777084649937036 c-0.6519245025052816,2.880630311458649 -0.561791686778566,5.923427295389461 -0.03330208452553356,8.81419302387762 l1.6784974559228156,-0.3091302194000618 V180.96584868737872 zM86.6243992962364,168.19413729265696 L86.6243992962364,168.19413729265696 c1.1586953539807912,-2.459286546374725 2.882440207356776,-4.8251824644061045 4.5978595396013775,-6.923213789514717 l-1.3157943179381992,-1.0866614972353434 c-1.7921589183251787,2.1649974733393043 -3.6161720044573884,4.718036627236998 -4.816856943274722,7.264560155901434 L86.6243992962364,168.19413729265696 zM94.57925374768341,157.47882961738694 L94.57925374768341,157.47882961738694 l0.011583333748011676,-0.011583333748011676 l0.14551563020939687,-0.15384115134078016 l0.14551563020939687,-0.15384115134078016 l0.14696354692789804,-0.15384115134078016 l0.14877344282602503,-0.15565104723890677 l0.14877344282602503,-0.15565104723890677 l0.14877344282602503,-0.15565104723890677 l0.15058333872415183,-0.15565104723890677 l0.15203125544265325,-0.15709896395740822 l0.15203125544265325,-0.15709896395740822 l0.15203125544265325,-0.15709896395740822 l0.15384115134078016,-0.15709896395740822 l0.15565104723890677,-0.15890885985553518 l0.15565104723890677,-0.15890885985553518 l0.15709896395740822,-0.15890885985553518 l0.15709896395740822,-0.15890885985553518 l0.15890885985553518,-0.16035677657403644 l0.16035677657403644,-0.1621666724721635 l0.16035677657403644,-0.1621666724721635 l0.16035677657403644,-0.16035677657403644 l0.1621666724721635,-0.1621666724721635 l0.1621666724721635,-0.1621666724721635 l0.16542448508879176,-0.16397656837028995 l0.16542448508879176,-0.16397656837028995 l0.16542448508879176,-0.16397656837028995 l0.1672343809869186,-0.16542448508879176 l0.1672343809869186,-0.16542448508879176 l0.16868229770542006,-0.16542448508879176 l0.1690442768850452,-0.1672343809869186 l0.17049219360354684,-0.1672343809869186 l0.17049219360354684,-0.1672343809869186 l0.17230208950167356,-0.16868229770542006 l0.17230208950167356,-0.16868229770542006 l0.17375000622017503,-0.16868229770542006 l0.17375000622017503,-0.17049219360354684 l0.1755599021183019,-0.17049219360354684 l0.1755599021183019,-0.17049219360354684 l0.17736979801642877,-0.17230208950167356 l0.011583333748011676,-0.010135417029510213 l-1.190549521787823,-1.2238516063133569 l-0.011583333748011676,0.011583333748011676 l-0.17736979801642877,0.17230208950167356 l-0.17736979801642877,0.17230208950167356 l-0.1755599021183019,0.17049219360354684 l-0.1755599021183019,0.17230208950167356 l-0.17375000622017503,0.16868229770542006 l-0.17375000622017503,0.17049219360354684 l-0.17230208950167356,0.16868229770542006 l-0.17230208950167356,0.16868229770542006 l-0.17049219360354684,0.16868229770542006 l-0.17049219360354684,0.1672343809869186 l-0.17049219360354684,0.1672343809869186 l-0.1690442768850452,0.1672343809869186 l-0.1672343809869186,0.16542448508879176 l-0.1672343809869186,0.1672343809869186 l-0.16542448508879176,0.16542448508879176 l-0.16542448508879176,0.16397656837028995 l-0.16542448508879176,0.16542448508879176 l-0.1621666724721635,0.16397656837028995 l-0.1621666724721635,0.1621666724721635 l-0.1621666724721635,0.16397656837028995 l-0.16035677657403644,0.1621666724721635 l-0.16035677657403644,0.1621666724721635 l-0.15890885985553518,0.1621666724721635 l-0.15890885985553518,0.16035677657403644 l-0.15709896395740822,0.16035677657403644 l-0.15709896395740822,0.16035677657403644 l-0.15709896395740822,0.16035677657403644 l-0.15565104723890677,0.15890885985553518 l-0.15384115134078016,0.15890885985553518 l-0.15384115134078016,0.15890885985553518 l-0.15203125544265325,0.15890885985553518 l-0.15203125544265325,0.15890885985553518 l-0.15058333872415183,0.15709896395740822 l-0.14877344282602503,0.15565104723890677 l-0.15058333872415183,0.15709896395740822 l-0.14877344282602503,0.15709896395740822 l-0.14696354692789804,0.15565104723890677 l-0.011583333748011676,0.013393229646138509 l1.2437604611927517,1.1688307710103014 V157.47882961738694 z" id="svg_20" class=""/></g></g></svg>