<svg xmlns="http://www.w3.org/2000/svg" xmlns:xlink="http://www.w3.org/1999/xlink" version="1.1" style="enable-background:new 0 0 512.455 512.455;" xml:space="preserve" width="256" height="256"><rect id="backgroundrect" width="100%" height="100%" x="0" y="0" fill="none" stroke="none" class="" style=""/>






















<g class="currentLayer" style=""><title>Layer 1</title><g id="svg_8" class="">
</g><g id="svg_9" class="">
</g><g id="svg_10" class="">
</g><g id="svg_11" class="">
</g><g id="svg_12" class="">
</g><g id="svg_13" class="">
</g><g id="svg_14" class="">
</g><g id="svg_15" class="">
</g><g id="svg_16" class="">
</g><g id="svg_17" class="">
</g><g id="svg_18" class="">
</g><g id="svg_19" class="">
</g><g id="svg_20" class="">
</g><g id="svg_21" class="">
</g><g id="svg_22" class="">
</g><g class=""><path style="fill:#E15649;" d="M105.16548831503658,125.31964959524365 l21.10126899457589,-23.305762039084883 L62.963307097699726,38.39505105983987 c-3.7792838356503915,-3.7792838356503915 -10.078090228401043,-3.7792838356503915 -13.857374064051433,0 L40.60227682457372,46.89870726891445 C36.822992988923346,50.677991104564825 36.822992988923346,56.976797497315495 40.60227682457372,60.75608133296587 L105.16548831503658,125.31964959524365 z" id="svg_1" class=""/><path style="fill:#C3C7CB;" d="M205.31775866112423,216.3382047070742 l15.117135342601566,1.8898203037326649 l-2.204493044508993,-15.432164855192832 l-13.857374064051433,-9.448387975033448 l-8.818328949850914,9.13335846244218 L205.31775866112423,216.3382047070742 z" id="svg_2" class=""/><path style="fill:#E0E0E0;" d="M138.23466784174616,144.8461277986782 L195.86937068609078,202.48083064302278 l8.818328949850914,-8.818328949850914 L147.0529967915971,136.02779884882727 L138.23466784174616,144.8461277986782 z" id="svg_3" class=""/><path style="fill:#BC342E;" d="M107.05530861876923,107.99766443631816 c-0.944731765958863,0 -1.5747907911413987,-0.31502951259126816 -2.204493044508993,-0.944731765958863 L51.310426078157285,53.512543174256336 c-1.2597612785501302,-1.2597612785501302 -1.2597612785501302,-3.1495815822827953 0,-4.4093428608329255 c1.2597612785501302,-1.2597612785501302 3.1495815822827953,-1.2597612785501302 4.4093428608329255,0 l53.54038949610295,53.54038949610295 c1.2597612785501302,1.2597612785501302 1.2597612785501302,3.1495815822827953 0,4.4093428608329255 C108.63009940991067,107.6826349237269 108.00004038472815,107.99766443631816 107.05530861876923,107.99766443631816 " id="svg_4" class=""/><path style="fill:#7F7C79;" d="M138.23466784174616,88.15615672029242 c7.243538158709516,-7.243538158709516 8.188626696483318,-18.581746437475626 0.6300590251825354,-26.14031410877641 c-14.802462601825239,-14.802462601825239 -23.305762039084883,-13.22767181068384 -39.997688172827836,-13.22767181068384 C124.06226426510347,37.765348806472275 142.32898118998781,35.24582624937197 160.5956981148722,43.74912568663163 c7.8735971838920475,3.4642543230591243 11.023178766174844,6.6138359053419205 17.321985158925497,12.912642298092571 l11.337851506951175,11.337851506951175 c2.834552069691528,2.834552069691528 4.7240156016092545,6.6138359053419205 5.35407462679179,10.39311974099231 c0.944731765958863,5.983776880159384 -0.6300590251825354,7.243538158709516 3.4642543230591243,11.652881019542441 c1.2597612785501302,1.2597612785501302 3.1495815822827953,1.2597612785501302 4.4093428608329255,0 c1.2597612785501302,-1.2597612785501302 3.1495815822827953,-1.2597612785501302 4.4093428608329255,0 l11.023178766174844,11.023178766174844 c2.519522557100261,2.519522557100261 2.519522557100261,6.298806392750652 0,8.818328949850914 l-22.36103027312602,22.36103027312602 c-2.519522557100261,2.519522557100261 -6.298806392750652,2.519522557100261 -8.818328949850914,0 l-10.39311974099231,-10.70814925358358 c-1.2597612785501302,-1.2597612785501302 -1.2597612785501302,-3.1495815822827953 0,-4.4093428608329255 c1.2597612785501302,-1.2597612785501302 1.2597612785501302,-3.4642543230591243 0,-4.7240156016092545 c-4.4093428608329255,-4.4093428608329255 -5.669104139383056,-2.834552069691528 -11.652881019542441,-3.4642543230591243 c-4.094313348241659,-0.6300590251825354 -7.558567671300783,-2.519522557100261 -10.39311974099231,-5.35407462679179 L138.23466784174616,88.15615672029242 " id="svg_5" class=""/><path style="fill:#565656;" d="M138.23466784174616,88.15615672029242 L40.60227682457372,197.44178552882227 c-3.7792838356503915,3.7792838356503915 -4.094313348241659,10.078090228401043 -0.31502951259126816,13.542701323275107 l4.4093428608329255,4.4093428608329255 c3.7792838356503915,3.7792838356503915 9.763417487624716,3.4642543230591243 13.542701323275107,-0.31502951259126816 l97.94742052976373,-109.60030154930617 L138.23466784174616,88.15615672029242 z" id="svg_6" class=""/><path style="fill:#E15649;" d="M122.80250298655335,142.64163475416922 l8.818328949850914,8.818328949850914 l22.36103027312602,-22.36103027312602 l-10.078090228401043,-10.078090228401043 L122.80250298655335,142.64163475416922 z" id="svg_7" class=""/></g></g></svg>