<svg xmlns="http://www.w3.org/2000/svg" height="256" width="256" style=""><rect id="backgroundrect" width="100%" height="100%" x="0" y="0" fill="none" stroke="none" class="" style=""/><g class="currentLayer" style=""><title>Layer 1</title><g class=""><path d="m91.84027204766912,183.22640235407482 c-1.0787896266861916,-0.9046234510623946 -2.6852757673895207,-0.7642508465871986 -3.5898992184519143,0.3145387800989968 l-8.077923572196385,9.627220874039445 c-0.9046234510623946,1.0774896307971609 -0.7642508465871986,2.6839764369706147 0.313238784209967,3.5885998880330088 c0.47830665228586516,0.4016215351758323 1.0592933484364258,0.5965833194683008 1.6363807223900229,0.5965833194683008 c0.7278579491306634,0 1.4492172497564237,-0.3093394620130011 1.9535184960618914,-0.9098224364133302 l8.077923572196385,-9.628520869928474 c0.9046234510623946,-1.0774896307971609 0.7642508465871986,-2.6839761042355494 -0.313238784209967,-3.5885995552979484 zm0,0 " fill="#f44545" id="svg_13" class=""/><path d="m75.6727272694205,166.9912707662641 l-10.884075665811338,6.282973962970428 c-1.2178625680074229,0.7044623486839334 -1.6363807223900229,2.2615586276559863 -0.9319180409710295,3.4807205260823144 c0.4718076710459018,0.8175406959855588 1.3270409276419601,1.2737514109786592 2.208268778257623,1.2737514109786592 c0.43151578412746544,0 0.8708302126488616,-0.11047835552356741 1.2711520846707238,-0.3418330372725689 l10.884075665811338,-6.282973962970428 c1.2178622352723607,-0.7044623486839334 1.6363807223900229,-2.2615586276559863 0.9319183737060922,-3.4807205260823144 c-0.7031630182650286,-1.219162231161391 -2.2615589603910493,-1.6350810592360556 -3.479421195663409,-0.9319183737060922 zm0,0 " fill="#c42d2d" id="svg_14" class=""/><g class="" id="svg_20"><path d="m128.55030761060917,196.83604633966425 c-1.4076253669489573,0 -2.5475028219573184,1.139877455008361 -2.5475028219573184,2.5475028219573184 v12.56724725635976 c0,1.4076253669489573 1.139877455008361,2.5475028219573184 2.5475028219573184,2.5475028219573184 s2.5475028219573184,-1.139877455008361 2.5475028219573184,-2.5475028219573184 v-12.56724725635976 c0,-1.4076253669489573 -1.139877455008361,-2.5475028219573184 -2.5475028219573184,-2.5475028219573184 zm0,0 " fill="#f44545" id="svg_6" class=""/><path d="m151.3712536421634,194.79024543770447 c-0.4809059785937998,-1.321841942291027 -1.9418208622060575,-2.0042086864172566 -3.2649628003861144,-1.5233027078234578 c-1.321841942291027,0.4822059744828299 -2.0042086864172566,1.944420521249055 -1.5220027119344293,3.2662624635400817 l4.296961226178842,11.809495391012529 c0.3769266043101973,1.0345980848357268 1.3543358502856564,1.67667260930846 2.3954325836262846,1.67667260930846 c0.28854352060926824,0 0.5835860224584994,-0.049390194466335316 0.8708298799137983,-0.15336990148500193 c1.3218422750260892,-0.4822059744828299 2.002909355998352,-1.9431208580950896 1.5220030446694905,-3.2662624635400817 zm0,0 " fill="#c42d2d" id="svg_7" class=""/><path d="m168.85024239200112,183.5396411382848 c-0.9033234551733647,-1.0774896307971609 -2.5111095917657225,-1.2178622352723607 -3.5885995552979484,-0.313238784209967 c-1.0774896307971609,0.9046234510623946 -1.2178622352723607,2.5111099245007846 -0.313238784209967,3.5885995552979484 l8.077923572196385,9.627221206774507 c0.5043015790405312,0.6004826416652652 1.2256608796662918,0.9111220995672955 1.9522188329079249,0.9111220995672955 c0.5783870371075638,0 1.1593737332581264,-0.19626178018149848 1.6363807223900229,-0.5965833194683008 c1.0774896307971609,-0.9046234510623946 1.2191618984263282,-2.5111102572358477 0.3145384473639347,-3.5885998880330088 zm0,0 " fill="#f44545" id="svg_8" class=""/><path d="m192.31196361760914,173.2742447292345 l-10.884075665811338,-6.282973962970428 c-1.219162231161391,-0.7031626855299651 -2.776258177398385,-0.2872438574552992 -3.479421195663409,0.9319183737060922 c-0.7031626855299651,1.2191618984263282 -0.28594386156626994,2.776258177398385 0.9319183737060922,3.4807205260823144 l10.884075665811338,6.282973962970428 c0.4016215351758323,0.2313546817490013 0.8396363005432607,0.3418330372725689 1.2724517478246915,0.3418330372725689 c0.8799281874616977,0 1.7364611072117229,-0.456210714993101 2.2082691109926853,-1.2737514109786592 c0.7031626855299651,-1.2191618984263282 0.28594419430133283,-2.776258177398385 -0.9332180368600601,-3.4807205260823144 zm0,0 " fill="#c42d2d" id="svg_9" class=""/><path d="m108.99562404259504,193.26694272988104 c-1.3231419381800564,-0.4796063154398321 -2.7840568217923156,0.20146076553243214 -3.2649628003861144,1.5233027078234578 l-4.2982612220678735,11.809495391012529 c-0.4822059744828299,1.3231416054449945 0.2001611023784639,2.7840564890572512 1.5220030446694905,3.2649628003861144 c0.2872438574552992,0.10527937017263403 0.5822863593045311,0.15466956463896905 0.8708298799137983,0.15466956463896905 c1.0410970660756906,0 2.017206316162122,-0.6420745244727335 2.3941329204723165,-1.67667260930846 l4.298260889332812,-11.810795054166494 c0.48090631132886313,-1.3205422791370593 -0.20016076964340138,-2.7827568259032844 -1.5220027119344293,-3.2649628003861144 zm0,0 " fill="#c42d2d" id="svg_12" class=""/><g class="" id="svg_21"><path d="m172.4024493825776,92.98631395477153 v50.655013937297134 c0,16.610758196231895 -9.232098320103576,31.06003814962952 -22.84694129104393,38.502385845858065 c-6.24008208427393,3.4105343902122467 -13.396485586201152,5.349755926110369 -21.00520048092451,5.349755926110369 c-24.21817342780129,0 -43.85084210881447,-19.63266834827812 -43.85084210881447,-43.852141771968434 v-50.655013937297134 zm0,0 " fill="#f44545" id="svg_1" class=""/><path d="m172.4024493825776,92.98631395477153 v50.655013937297134 c0,16.610758196231895 -9.232098320103576,31.06003814962952 -22.84694129104393,38.502385845858065 c-2.1289843348396578,0.3184377695608997 -4.309958855923708,0.4848053007907658 -6.531225263926196,0.4848053007907658 h-0.00389932219696562 c-24.21557410149336,0 -43.848242449771476,-19.63266834827812 -43.848242449771476,-43.850841776079406 v-45.79136330786656 zm0,0 " fill="#f95353" id="svg_2" class=""/><path d="m186.8738249405329,59.879175240028275 v32.22851019043554 c0,2.0977904227340582 -1.6987685466012223,3.7952593061813107 -3.7965589693352784,3.7952593061813107 h-109.05391672117695 c-2.0977904227340582,0 -3.7952593061813107,-1.6974688834472547 -3.7952593061813107,-3.7952593061813107 v-32.22851019043554 zm0,0 " fill="#c8d2dc" id="svg_3" class=""/><path d="m186.8738249405329,59.879175240028275 v27.150401165727676 h-93.15671918117688 c-2.0951910964261207,0 -3.7926596471383123,-1.7013678729091581 -3.7926596471383123,-3.7952593061813107 v-23.355141859546364 zm0,0 " fill="#dce6eb" id="svg_4" class=""/><path d="m192.2950669984024,62.79450602601281 h-127.48821911243247 c-1.2971466786903283,0 -2.3473417195788544,-1.0501950408885277 -2.3473417195788544,-2.3473417195788544 v-13.961874993563852 c0,-1.2958473482714237 1.0501950408885277,-2.347342052313917 2.3473417195788544,-2.347342052313917 h127.48821911243247 c1.2958470155363606,0 2.3460420564248867,1.051494704042495 2.3460420564248867,2.347342052313917 v13.961874993563852 c0,1.2971466786903283 -1.0501950408885277,2.3473417195788544 -2.3460420564248867,2.3473417195788544 zm0,0 " fill="#b9c3cd" id="svg_5" class=""/><path d="m199.96357039102898,149.3199195584418 l-12.376184794264255,-2.1822738515029565 c-1.386829092810162,-0.24565230738289595 -2.7073713719472203,0.6810667482372015 -2.9517236834410863,2.066596510628457 s0.6810670809722632,2.7060720415283153 2.066596510628457,2.950424020287118 l12.377484457418227,2.182274184238019 c0.1494709120230985,0.027294922643696776 0.29764182815716583,0.03899255649953105 0.44581307702629697,0.03899255649953105 c1.2126632499214274,0 2.287553554410653,-0.8695305494948918 2.5046109432608215,-2.10428940397402 c0.244352644228928,-1.3855297623912568 -0.6810667482372015,-2.707371704682282 -2.066596510628457,-2.951724016176148 zm0,0 " fill="#f44545" id="svg_10" class=""/><path d="m187.023295852556,131.43151062903428 c0.14817091613406813,0 0.29634216500319865,-0.012997297009802086 0.44581307702629697,-0.038992223764468675 l12.377484124683162,-2.182274184238019 c1.3855297623912568,-0.2443523114938656 2.3109491548573837,-1.564894590630924 2.0665968433635196,-2.9517236834410863 c-0.24565197464783303,-1.3855297623912568 -1.5687939128278896,-2.3109491548573837 -2.951724016176148,-2.0652971802095514 l-12.377484124683162,2.182274184238019 c-1.3855297623912568,0.2443523114938656 -2.3096494917034165,1.564894590630924 -2.0652971802095514,2.9504243530221808 c0.21705772158523184,1.236058517633096 1.2919480260744571,2.105588734392927 2.5046112759958845,2.105588734392927 zm0,0 " fill="#c42d2d" id="svg_11" class=""/><path d="m72.46495330789466,149.20424221756727 c-0.2443523114938656,-1.3855297623912568 -1.5661942537848916,-2.3122488180113523 -2.9517236834410863,-2.066596510628457 l-12.376184794264255,2.1822738515029565 c-1.3855297623912568,0.2443523114938656 -2.3109491548573837,1.564894590630924 -2.066596510628457,2.951724016176148 c0.21835738473919925,1.2360588503681584 1.2932473564933629,2.10428940397402 2.505910939149852,2.10428940397402 c0.1468712529801004,0 0.29634183226813654,-0.01169763385583438 0.4458127442912345,-0.03899255649953105 l12.376184794264255,-2.182274184238019 c1.385529429656195,-0.24435197875880316 2.3109488221223216,-1.5648942578958631 2.066596510628457,-2.950424020287118 zm0,0 " fill="#f44545" id="svg_15" class=""/><path d="m57.2553218301068,129.2102442210318 l12.376184461529197,2.182274184238019 c0.1494709120230985,0.025994926754666633 0.29894182404619674,0.038992223764468675 0.44581307702629697,0.038992223764468675 c1.2126632499214274,0 2.287553554410653,-0.8695302167598313 2.505910939149852,-2.105588734392927 c0.2443523114938656,-1.3855297623912568 -0.6810670809722632,-2.707371704682282 -2.0665968433635196,-2.9504243530221808 l-12.376184461529197,-2.182274184238019 c-1.3868294255452245,-0.24565197464783303 -2.707371704682282,0.6810670809722632 -2.951724016176148,2.0652971802095514 c-0.2443523114938656,1.386829092810162 0.6810670809722632,2.7073713719472203 2.0665968433635196,2.9517236834410863 zm0,0 " fill="#c42d2d" id="svg_16" class=""/><g fill="#af2727" id="svg_17" class=""><path d="m128.58150152271472,154.98291426876216 c-4.127994368641043,0 -7.582720300703754,-3.1297891812618475 -7.986941162187521,-7.238287271653126 l-3.3169526538954472,-33.638734883692436 c-0.4653093552760626,-4.721978361801407 3.2428668630933517,-8.814879828874945 7.986941162187521,-8.814879828874945 h6.5715174835796955 c4.737575317854206,0 8.44575186895868,4.083803159525641 7.988241158076552,8.799282872822145 l-3.2532651665302796,33.64003487958147 c-0.3977225457139303,4.11369707574221 -3.8563474672385434,7.252584231816894 -7.989540821230517,7.252584231816894 zm0,0 " id="svg_18"/><path d="m136.0615417795538,170.58376964375898 c0,4.148790310044776 -3.3624438588998786,7.511234168944654 -7.511234168944654,7.511234168944654 s-7.511234168944654,-3.3624438588998786 -7.511234168944654,-7.511234168944654 s3.3624438588998786,-7.511234168944654 7.511234168944654,-7.511234168944654 s7.511234168944654,3.3624438588998786 7.511234168944654,7.511234168944654 zm0,0 " id="svg_19"/></g></g></g></g></g></svg>