<svg xmlns="http://www.w3.org/2000/svg" xmlns:xlink="http://www.w3.org/1999/xlink" enable-background="new 0 0 510 510" height="256" width="256"><rect id="backgroundrect" width="100%" height="100%" x="0" y="0" fill="none" stroke="none" class="" style=""/><linearGradient id="lg1"><stop offset="0" stop-color="#f9f7fc"/><stop offset="1" stop-color="#f0ddfc"/></linearGradient><linearGradient id="SVGID_1_" x1="-0.14329758042711035" x2="1.1023275919282944" xlink:href="#lg1" y1="-0.054800213055410864" y2="1.059859026192262"/><linearGradient id="SVGID_2_" x1="0.5501671090354995" x2="-0.35702032038488607" y1="0.5376783268283953" y2="-0.0857413079973997"><stop offset="0" stop-color="#e9edf5" stop-opacity="0"/><stop offset="1" stop-color="#fff"/></linearGradient><linearGradient id="lg2"><stop offset="0" stop-color="#f0ddfc" stop-opacity="0"/><stop offset=".2889" stop-color="#c8b7e0" stop-opacity=".289"/><stop offset=".5915" stop-color="#a595c8" stop-opacity=".592"/><stop offset=".8395" stop-color="#8f81b8" stop-opacity=".84"/><stop offset="1" stop-color="#8779b3"/></linearGradient><linearGradient id="SVGID_3_" x1="0.8171325961015007" x2="0.4010820407400486" xlink:href="#lg2" y1="1.9972611466913948" y2="0.5752272356771886"/><linearGradient id="SVGID_4_" x1="0.5000000094617119" x2="0.5000000094617119" xlink:href="#lg1" y1="0.3328993607606221" y2="0.8081426510799419"/><linearGradient id="SVGID_5_" x1="0.33093238120790597" x2="0.8721854167956576" xlink:href="#lg1" y1="-3.192122669873722" y2="8.635297654840649"/><linearGradient id="SVGID_6_" x1="0.4287689564921798" x2="0.025170266107609682" xlink:href="#lg2" y1="0.2701267207976702" y2="0.03163705890735907"/><linearGradient id="SVGID_7_" x1="0.6200284768620818" x2="-0.2965477885527505" xlink:href="#lg2" y1="0.45293765773946554" y2="0.07051577607817057"/><linearGradient id="lg3"><stop offset="0" stop-color="#ff7044"/><stop offset="1" stop-color="#f92814"/></linearGradient><linearGradient id="SVGID_8_" x1="0" x2="1" xlink:href="#lg3" y1="0.5000000589260816" y2="0.5000000589260816"/><linearGradient id="SVGID_9_" x1="0.05792688738594424" x2="0.9420776479513846" xlink:href="#lg3" y1="0.2665450576500722" y2="0.7334550132149"/><linearGradient id="SVGID_10_" x1="0.8498012995094453" x2="0.3001619706655624" xlink:href="#lg2" y1="0.49187492312925557" y2="0.16866592784982687"/><g class="currentLayer" style=""><title>Layer 1</title><path d="m437.513 509.797v.203h-4.436c1.493 0 2.972-.072 4.436-.203z" fill="url(#SVGID_5_)" id="svg_5"/><g class=""><path d="m181.2710939997725,212.66601661197856 h-109.80361879635953 v-154.99097563078286 c0,-5.986503753893416 4.852999213886222,-10.839502967779637 10.83917780870333,-10.839502967779637 h103.54658269097845 c6.024222206745061,0 10.908111532880472,4.883564167059106 10.908111532880472,10.908111532880472 v139.43211382947928 c0.0003251590763072851,8.554935297644654 -6.934992779481763,15.49025323620273 -15.49025323620273,15.49025323620273 z" fill="url(#SVGID_1_)" id="svg_1" class=""/><path d="m89.32618715143796,53.85507215273775 c-5.986503753893416,0 -10.839502967779637,4.852999213886222 -10.839502967779637,10.839502967779637 v147.97176665053752 h102.78440981611418 c8.554935297644654,0 15.49025323620273,-6.935317938558072 15.49025323620273,-15.49025323620273 v-139.43243898855562 c0,-1.172523629164068 -0.18729162795299642,-2.3008256239503453 -0.5293589762282592,-3.359218417330557 c-1.058392793380211,-0.3423925073515711 -2.186694788166488,-0.5293589762282592 -3.359218417330557,-0.5293589762282592 z" fill="url(#SVGID_2_)" id="svg_2" class=""/><path d="m193.59364751458963,206.55920399985146 l-28.16690498511852,-28.16690498511852 c-0.5911392007266425,-0.8785798241822836 -1.5945801102109236,-1.456712661856635 -2.7329620363627263,-1.456712661856635 h-91.22630528969543 v35.730755418178575 h109.80394395543581 c5.026634160634313,-0.0003251590763072851 9.492368914638558,-2.3964223923846872 12.322228355740855,-6.107137771203418 z" fill="url(#SVGID_3_)" id="svg_3" class=""/><path d="m181.47334294523563,212.66666693013119 h-115.60250576322365 c-8.55916236563665,0 -15.492529349736879,-6.9379192111685315 -15.492529349736879,-15.492529349736879 v-16.94696589805936 c0,-1.8179643956340281 1.473946092900921,-3.2919104885349486 3.2919104885349486,-3.2919104885349486 h109.02323701322203 c1.8179643956340281,0 3.2919104885349486,1.473946092900921 3.2919104885349486,3.2919104885349486 v16.94696589805936 c0.0003251590763072851,8.554610138568348 6.9333669841002274,15.492529349736879 15.487977122668577,15.492529349736879 z" fill="url(#SVGID_4_)" id="svg_4" class=""/><g fill="#bec3d2" id="svg_6" class=""><path d="m138.03761805487963,168.44503255234048 h-46.80014585290746 c-0.724779581088937,0 -1.312016872899893,-0.5875624508872636 -1.312016872899893,-1.312016872899893 v-4.529465932960473 c0,-0.724779581088937 0.5875624508872636,-1.312016872899893 1.312016872899893,-1.312016872899893 h46.80014585290746 c0.724779581088937,0 1.312016872899893,0.5875624508872636 1.312016872899893,1.312016872899893 v4.529465932960473 c0,0.7244544220126303 -0.5875624508872636,1.312016872899893 -1.312016872899893,1.312016872899893 z" id="svg_7"/><path d="m161.20585255992623,168.44503255234048 h-14.691337385715729 c-0.724779581088937,0 -1.312016872899893,-0.5875624508872636 -1.312016872899893,-1.312016872899893 v-4.529465932960473 c0,-0.724779581088937 0.5875624508872636,-1.312016872899893 1.312016872899893,-1.312016872899893 h14.691337385715729 c0.724779581088937,0 1.312016872899893,0.5875624508872636 1.312016872899893,1.312016872899893 v4.529465932960473 c0,0.7244544220126303 -0.5872372918109554,1.312016872899893 -1.312016872899893,1.312016872899893 z" id="svg_8"/><path d="m176.99135023741601,168.44503255234048 h-7.7729277191256365 c-0.724779581088937,0 -1.312016872899893,-0.5875624508872636 -1.312016872899893,-1.312016872899893 v-4.529465932960473 c0,-0.724779581088937 0.5875624508872636,-1.312016872899893 1.312016872899893,-1.312016872899893 h7.7729277191256365 c0.724779581088937,0 1.312016872899893,0.5875624508872636 1.312016872899893,1.312016872899893 v4.529465932960473 c0,0.7244544220126303 -0.5872372918109554,1.312016872899893 -1.312016872899893,1.312016872899893 z" id="svg_9"/><path d="m161.09334751952397,124.96183443684365 h-46.80014585290746 c-0.724779581088937,0 -1.312016872899893,-0.5875624508872636 -1.312016872899893,-1.312016872899893 v-4.529465932960473 c0,-0.724779581088937 0.5875624508872636,-1.312016872899893 1.312016872899893,-1.312016872899893 h46.80014585290746 c0.724779581088937,0 1.312016872899893,0.5875624508872636 1.312016872899893,1.312016872899893 v4.529465932960473 c0,0.724779581088937 -0.5872372918109554,1.312016872899893 -1.312016872899893,1.312016872899893 z" id="svg_10"/><path d="m105.92880958768792,124.96183443684365 h-14.691337385715729 c-0.724779581088937,0 -1.312016872899893,-0.5875624508872636 -1.312016872899893,-1.312016872899893 v-4.529465932960473 c0,-0.724779581088937 0.5875624508872636,-1.312016872899893 1.312016872899893,-1.312016872899893 h14.691337385715729 c0.724779581088937,0 1.312016872899893,0.5875624508872636 1.312016872899893,1.312016872899893 v4.529465932960473 c0,0.724779581088937 -0.5872372918109554,1.312016872899893 -1.312016872899893,1.312016872899893 z" id="svg_11"/><path d="m176.99135023741601,124.96183443684365 h-7.7729277191256365 c-0.724779581088937,0 -1.312016872899893,-0.5875624508872636 -1.312016872899893,-1.312016872899893 v-4.529465932960473 c0,-0.724779581088937 0.5875624508872636,-1.312016872899893 1.312016872899893,-1.312016872899893 h7.7729277191256365 c0.724779581088937,0 1.312016872899893,0.5875624508872636 1.312016872899893,1.312016872899893 v4.529465932960473 c0,0.724779581088937 -0.5872372918109554,1.312016872899893 -1.312016872899893,1.312016872899893 z" id="svg_12"/><path d="m130.19120438450858,96.06689827987313 h46.80014585290746 c0.724779581088937,0 1.312016872899893,0.5875624508872636 1.312016872899893,1.312016872899893 v4.529465932960473 c0,0.724779581088937 -0.5875624508872636,1.312016872899893 -1.312016872899893,1.312016872899893 h-46.80014585290746 c-0.724779581088937,0 -1.312016872899893,-0.5875624508872636 -1.312016872899893,-1.312016872899893 v-4.529465932960473 c0,-0.724779581088937 0.5875624508872636,-1.312016872899893 1.312016872899893,-1.312016872899893 z" id="svg_13"/><path d="m107.02296987946191,96.06689827987313 h14.691337385715729 c0.724779581088937,0 1.312016872899893,0.5875624508872636 1.312016872899893,1.312016872899893 v4.529465932960473 c0,0.724779581088937 -0.5875624508872636,1.312016872899893 -1.312016872899893,1.312016872899893 h-14.691337385715729 c-0.724779581088937,0 -1.312016872899893,-0.5875624508872636 -1.312016872899893,-1.312016872899893 v-4.529465932960473 c0,-0.724779581088937 0.5872372918109554,-1.312016872899893 1.312016872899893,-1.312016872899893 z" id="svg_14"/><path d="m91.23747220197218,96.06689827987313 h7.7729277191256365 c0.724779581088937,0 1.312016872899893,0.5875624508872636 1.312016872899893,1.312016872899893 v4.529465932960473 c0,0.724779581088937 -0.5875624508872636,1.312016872899893 -1.312016872899893,1.312016872899893 h-7.7729277191256365 c-0.724779581088937,0 -1.312016872899893,-0.5875624508872636 -1.312016872899893,-1.312016872899893 v-4.529465932960473 c0,-0.724779581088937 0.5872372918109554,-1.312016872899893 1.312016872899893,-1.312016872899893 z" id="svg_15"/><path d="m107.13547491986424,139.55009639536996 h46.80014585290746 c0.724779581088937,0 1.312016872899893,0.5875624508872636 1.312016872899893,1.312016872899893 v4.529465932960473 c0,0.724779581088937 -0.5875624508872636,1.312016872899893 -1.312016872899893,1.312016872899893 h-46.80014585290746 c-0.724779581088937,0 -1.312016872899893,-0.5875624508872636 -1.312016872899893,-1.312016872899893 v-4.529465932960473 c0,-0.724779581088937 0.5872372918109554,-1.312016872899893 1.312016872899893,-1.312016872899893 z" id="svg_16"/><path d="m162.3000128517003,139.55009639536996 h14.691337385715729 c0.724779581088937,0 1.312016872899893,0.5875624508872636 1.312016872899893,1.312016872899893 v4.529465932960473 c0,0.724779581088937 -0.5875624508872636,1.312016872899893 -1.312016872899893,1.312016872899893 h-14.691337385715729 c-0.724779581088937,0 -1.312016872899893,-0.5875624508872636 -1.312016872899893,-1.312016872899893 v-4.529465932960473 c0,-0.724779581088937 0.5872372918109554,-1.312016872899893 1.312016872899893,-1.312016872899893 z" id="svg_17"/><path d="m91.23747220197218,139.55009639536996 h7.7729277191256365 c0.724779581088937,0 1.312016872899893,0.5875624508872636 1.312016872899893,1.312016872899893 v4.529465932960473 c0,0.724779581088937 -0.5875624508872636,1.312016872899893 -1.312016872899893,1.312016872899893 h-7.7729277191256365 c-0.724779581088937,0 -1.312016872899893,-0.5875624508872636 -1.312016872899893,-1.312016872899893 v-4.529465932960473 c0,-0.724779581088937 0.5872372918109554,-1.312016872899893 1.312016872899893,-1.312016872899893 z" id="svg_18"/></g><path d="m196.76167239505153,83.63249004280625 l-16.803245586331542,-16.802920427255234 c-6.391326803895984,-6.816960034782219 -15.472044327929519,-11.084022593162716 -25.531815830724288,-11.084022593162716 c-19.303068564981945,0 -35.00727647339487,15.703882749336616 -35.00727647339487,35.006951314318556 c0,10.059771502794767 4.266737399304187,19.140489026828302 11.083697434086409,25.531815830724288 l66.25831529728798,66.25831529728798 v-98.91013942191286 z" fill="url(#SVGID_6_)" id="svg_19" class=""/><path d="m196.76167239505153,98.69353329828334 l-27.035351399569173,-27.035351399569173 c-0.027963680562426558,-0.051049974980243835 -0.05430156574331684,-0.10307542718940946 -0.08421620076358714,-0.1531499249407312 c-0.4607504111274233,-0.7677005791615001 -1.1328542218545792,-1.1517134482804021 -2.015661114028857,-1.1517134482804021 h-19.984276829845705 c-1.0756262244244972,0 -1.9968018876030342,0.24029255739108396 -2.7641773076882257,0.7199021949443285 c-0.7686760563904225,0.4805851147821668 -1.152038607356709,1.1617933796459274 -1.152038607356709,2.044600271820204 v36.57096647135659 c0,0.872076642656139 0.4311609351834603,1.5461314078411381 1.2921821692451494,2.024765568165461 l51.74353929000711,51.74353929000711 z" fill="url(#SVGID_7_)" id="svg_20" class=""/><path d="m143.7259509357993,109.68846230453785 v-36.57064131228029 c0,-0.8828068921742783 0.3833625509662896,-1.5640151570380394 1.152038607356709,-2.044600271820204 c0.7677005791615001,-0.4796096375532453 1.6888762423400385,-0.7199021949443285 2.7641773076882257,-0.7199021949443285 h19.984276829845705 c0.8828068921742783,0 1.5549107029014353,0.38433802819521157 2.015661114028857,1.1517134482804021 c0.4607504111274233,0.7683508973141152 0.6909630371529802,1.6700170159142145 0.6909630371529802,2.706624151181836 c0,1.1139949954287567 -0.23996739831477656,2.0543550441094234 -0.7199021949443285,2.822055623270923 c-0.4805851147821668,0.7683508973141152 -1.1429341532201052,1.152038607356709 -1.9870471153138167,1.152038607356709 h-14.916347466520373 v9.732986631105948 h8.696379495838324 c0.8441129620937108,0 1.5064620005316494,0.3456440981146443 1.9870471153138167,1.0366071352676234 c0.4796096375532453,0.6909630371529802 0.7199021949443285,1.51719225004979 0.7199021949443285,2.4764115251562786 c0,0.8837823694032 -0.23053778510186507,1.6700170159142145 -0.6909630371529802,2.3613052121435008 c-0.4607504111274233,0.6909630371529802 -1.133179380930887,1.0366071352676234 -2.0159862731051645,1.0366071352676234 h-8.696379495838324 v14.858794310013982 c0,0.8837823694032 -0.4418911847016007,1.5649906342669606 -1.3246980768758774,2.044600271820204 c-0.8837823694032,0.4805851147821668 -1.9392487310966453,0.7199021949443285 -3.167374562309258,0.7199021949443285 c-1.2294264675178437,0 -2.2848928292112882,-0.23931708016216222 -3.167374562309258,-0.7199021949443285 c-0.8837823694032,-0.4796096375532453 -1.3243729177995704,-1.160817902417006 -1.3243729177995704,-2.044600271820204 z" fill="url(#SVGID_8_)" id="svg_21" class=""/><path d="m154.42661097799567,125.75944965102542 c-19.303068564981945,0 -35.00727647339487,-15.703882749336616 -35.00727647339487,-35.006951314318556 s15.70420790841292,-35.006951314318556 35.00727647339487,-35.006951314318556 s35.006951314318556,15.703882749336616 35.006951314318556,35.006951314318556 s-15.703882749336616,35.006951314318556 -35.006951314318556,35.006951314318556 zm0,-65.13651648402785 c-16.613677844844396,0 -30.1298903287856,13.516212483941201 -30.1298903287856,30.129565169709295 s13.516212483941201,30.129565169709295 30.1298903287856,30.129565169709295 s30.129565169709295,-13.516212483941201 30.129565169709295,-30.129565169709295 s-13.515887324864895,-30.129565169709295 -30.129565169709295,-30.129565169709295 z" fill="url(#SVGID_9_)" id="svg_22" class=""/><path d="m196.76004659966995,83.63379067911148 v98.91013942191286 l-66.25766497913538,-66.26091656989846 c6.2625638096783005,5.875624508872631 14.680932295273895,9.475135483594272 23.925204834689996,9.475135483594272 c19.301442769600406,0 35.00662615524225,-15.701931794878769 35.00662615524225,-35.00662615524225 c0,-9.231266176363807 -3.5930077931954942,-17.643131480433258 -9.455625939015835,-23.90244369934849 z" fill="url(#SVGID_10_)" id="svg_23" class=""/></g></g></svg>