<svg xmlns="http://www.w3.org/2000/svg" xmlns:xlink="http://www.w3.org/1999/xlink" version="1.1" style="" xml:space="preserve" width="256" height="256"><rect id="backgroundrect" width="100%" height="100%" x="0" y="0" fill="none" stroke="none" class="" style=""/>






















<g class="currentLayer" style=""><title>Layer 1</title><g id="svg_8" class="">
</g><g id="svg_9" class="">
</g><g id="svg_10" class="">
</g><g id="svg_11" class="">
</g><g id="svg_12" class="">
</g><g id="svg_13" class="">
</g><g id="svg_14" class="">
</g><g id="svg_15" class="">
</g><g id="svg_16" class="">
</g><g id="svg_17" class="">
</g><g id="svg_18" class="">
</g><g id="svg_19" class="">
</g><g id="svg_20" class="">
</g><g id="svg_21" class="">
</g><g id="svg_22" class="">
</g><g class=""><path style="fill:#E15649;" d="M106.8277437145666,127.78516415746078 l19.330002705516893,-21.349447911660928 L68.16806512748587,48.157122578670624 c-3.4620461350839538,-3.4620461350839538 -9.232123026890543,-3.4620461350839538 -12.694169161974495,0 L47.684047043607684,55.94697150057433 C44.222000908523746,59.40901763565827 44.222000908523746,65.17909452746488 47.684047043607684,68.64114066254882 L106.8277437145666,127.78516415746078 z" id="svg_1" class=""/><path style="fill:#C3C7CB;" d="M198.57311017812717,211.16351059796048 l13.848184540335815,1.7311864795185223 l-2.0194452061440336,-14.136770090914416 l-12.694169161974495,-8.65527874968643 l-8.078107648529226,8.366693199107827 L198.57311017812717,211.16351059796048 z" id="svg_2" class=""/><path style="fill:#E0E0E0;" d="M137.12105592649255,145.6725659340378 L189.91783142844073,198.469341435986 l8.078107648529226,-8.078107648529226 L145.1991635750218,137.59445828550858 L137.12105592649255,145.6725659340378 z" id="svg_3" class=""/><path style="fill:#BC342E;" d="M108.55893019408511,111.91720758702786 c-0.8654298277827158,0 -1.4426009289399206,-0.2885855505786028 -2.0194452061440336,-0.8654298277827158 L57.49334117165542,62.00563394295949 c-1.1540153783613176,-1.1540153783613176 -1.1540153783613176,-2.8852018578798395 0,-4.039217236241157 c1.1540153783613176,-1.1540153783613176 2.8852018578798395,-1.1540153783613176 4.039217236241157,0 l49.04614381628564,49.04614381628564 c1.1540153783613176,1.1540153783613176 1.1540153783613176,2.8852018578798395 0,4.039217236241157 C110.00153112302506,111.62862203644926 109.42436002186787,111.91720758702786 108.55893019408511,111.91720758702786 " id="svg_4" class=""/><path style="fill:#7F7C79;" d="M137.12105592649255,93.7412202598723 c6.635506719589306,-6.635506719589306 7.501263371325113,-17.021971948794256 0.5771711011572045,-23.94606421896216 c-13.559925813710304,-13.559925813710304 -21.349447911660928,-12.117324884770383 -36.64023338093665,-12.117324884770383 C124.13830121393944,47.58027830146651 140.87168761215509,45.272247544743834 157.60507401037074,53.06176964269447 c7.2126778207465065,3.173460584505352 10.097879678626349,6.0586624423851925 15.867956570432938,11.82873933419178 l10.386138405251861,10.386138405251861 c2.596616307301238,2.596616307301238 4.32747596286667,6.0586624423851925 4.904647064023874,9.520708577469144 c0.8654298277827158,5.481491341227987 -0.5771711011572045,6.635506719589306 3.173460584505352,10.674723955830464 c1.1540153783613176,1.1540153783613176 2.8852018578798395,1.1540153783613176 4.039217236241157,0 c1.1540153783613176,-1.1540153783613176 2.8852018578798395,-1.1540153783613176 4.039217236241157,0 l10.097879678626349,10.097879678626349 c2.3080307567226357,2.3080307567226357 2.3080307567226357,5.77007689180659 0,8.078107648529226 l-20.484018083878208,20.484018083878208 c-2.3080307567226357,2.3080307567226357 -5.77007689180659,2.3080307567226357 -8.078107648529226,0 l-9.520708577469144,-9.809294128047748 c-1.1540153783613176,-1.1540153783613176 -1.1540153783613176,-2.8852018578798395 0,-4.039217236241157 c1.1540153783613176,-1.1540153783613176 1.1540153783613176,-3.173460584505352 0,-4.32747596286667 c-4.039217236241157,-4.039217236241157 -5.193232614602476,-2.596616307301238 -10.674723955830464,-3.173460584505352 c-3.7506316856625563,-0.5771711011572045 -6.9240922701679075,-2.3080307567226357 -9.520708577469144,-4.904647064023874 L137.12105592649255,93.7412202598723 " id="svg_5" class=""/><path style="fill:#565656;" d="M137.12105592649255,93.7412202598723 L47.684047043607684,193.85327992254074 c-3.4620461350839538,3.4620461350839538 -3.7506316856625563,9.232123026890543 -0.2885855505786028,12.405910435348986 l4.039217236241157,4.039217236241157 c3.4620461350839538,3.4620461350839538 8.943864300265032,3.173460584505352 12.405910435348986,-0.2885855505786028 l89.72559443346347,-100.40031838929393 L137.12105592649255,93.7412202598723 z" id="svg_6" class=""/><path style="fill:#E15649;" d="M122.98428583557813,143.6531207278938 l8.078107648529226,8.078107648529226 l20.484018083878208,-20.484018083878208 l-9.232123026890543,-9.232123026890543 L122.98428583557813,143.6531207278938 z" id="svg_7" class=""/></g></g></svg>