<svg xmlns:xlink="http://www.w3.org/1999/xlink" xmlns="http://www.w3.org/2000/svg" contentScriptType="text/ecmascript" zoomAndPan="magnify" baseProfile="full" contentStyleType="text/css" style="enable-background:new 0 0 512 512;" version="1.1" xml:space="preserve" preserveAspectRatio="xMidYMid meet" width="256" height="256"><rect id="backgroundrect" width="100%" height="100%" x="0" y="0" fill="none" stroke="none"/>          
     
     
     
     
     
     
     
     
     
     
     
     
     
     
     
    
    
    
    
    
    
    
    
    <g class="currentLayer" style=""><title>Layer 1</title><g class=""><g id="svg_1" class=""> </g><g id="svg_2" class=""> </g><g id="svg_3" class=""> </g><g id="svg_4" class=""> </g><g id="svg_5" class=""> </g><g id="svg_6" class=""> </g><g id="svg_7" class=""> </g><g id="svg_8" class=""> </g><g id="svg_9" class=""> </g><g id="svg_10" class=""> </g><g id="svg_11" class=""> </g><g id="svg_12" class=""> </g><g id="svg_13" class=""> </g><g id="svg_14" class=""> </g><g id="svg_15" class=""> </g><polygon style="fill:#E3F2FF;" points="61.961817264556885,124.84174346923828 61.961817264556885,183.9244384765625 134.7215371131897,183.9244384765625 134.7250771522522,183.92794799804688 168.09809350967407,159.33245849609375 168.09809350967407,124.84174346923828 " id="svg_16" class=""/><path style="fill:#FE73B1;" d="M221.60478733332928,157.03625554376885 c6.808275030175263,11.796929498058194 2.8346879146580166,26.958193417045376 -9.064137504446295,33.829091982030235 l-20.625786490366746,11.908378161702387 l-24.764954477583935,-42.89322948647653 c27.530296557085567,-15.895056072631808 18.907708043839122,-10.916308152628362 20.625786490366746,-11.908378161702387 C199.62039917650606,141.1337766363331 214.76609212505832,145.1915658707731 221.60478733332928,157.03625554376885 z" id="svg_17" class=""/><path style="fill:#FEC459;" d="M167.14990886093233,159.88086415851762 l24.764954477583935,42.89322948647653 l-22.26744299610978,12.856576315881552 c-11.844693211048561,6.838702284376535 -26.9903896976537,2.7809095118836753 -33.829091982030235,-9.064137504446295 c-6.883635555115622,-11.955788069411344 -2.6913967756869113,-27.038861021206888 9.064137504446295,-33.829091982030235 L167.14990886093233,159.88086415851762 z" id="svg_18" class=""/><path style="fill:#ED5151;" d="M146.87085685342674,89.46299192335246 l18.396813217482887,24.527904939039143 c1.836249410518612,2.4518706001722483 2.8304422512810947,5.43055726436419 2.8304422512810947,8.490972948561874 v2.3598812270056126 H61.961822595185936 v-2.3598812270056126 c0,-3.0604156841976837 0.9941928407624845,-6.039102348389625 2.8304422512810947,-8.490972948561874 l18.396813217482887,-24.527904939039143 V75.31148898512038 h63.68176640629195 V89.46299192335246 z" id="svg_19" class=""/><path style="fill:#57555C;" d="M153.94660690732167,51.96140112028502 v16.274335334303476 c0,3.9091945543006017 -3.1665572686207244,7.075751822921326 -7.075751822921326,7.075751822921326 H83.18908160200274 c-3.9091945543006017,0 -7.075751822921326,-3.1665572686207244 -7.075751822921326,-7.075751822921326 V51.96140112028502 c0,-3.9091945543006017 3.1665572686207244,-7.075751822921326 7.075751822921326,-7.075751822921326 h63.68176640629195 C150.7800567148065,44.8856492973637 153.94660690732167,48.052204796957994 153.94660690732167,51.96140112028502 z" id="svg_20" class=""/><path style="fill:#ED5151;" d="M134.7250608418816,183.92794064401477 l-0.003538052814101375,-0.003538052814101375 H61.961822595185936 v7.075751822921326 c0,7.815204861068513 6.33629878477414,14.151503645842652 14.151503645842652,14.151503645842652 H135.0576399292388 l0.003538052814101375,-0.003538052814101375 L134.7250608418816,183.92794064401477 z" id="svg_21" class=""/><path d="M97.4290386910296,93.00104261462215 c1.9530051533839554,0 3.5376990088199585,-1.5850476607174133 3.5376990088199585,-3.5376990088199585 c0,-1.9530051533839554 -1.5850476607174133,-3.5376990088199585 -3.5376990088199585,-3.5376990088199585 c-1.9530051533839554,0 -3.5376990088199585,1.5850476607174133 -3.5376990088199585,3.5376990088199585 C93.89098587692826,91.41599000063079 95.47603141481397,93.00104261462215 97.4290386910296,93.00104261462215 z" id="svg_22" class=""/><path d="M129.26973650020813,152.083342485414 h-10.613450831741286 v-10.613450831741286 c0,-1.9537127639467755 -1.5843400501545943,-3.5376990088199585 -3.5376990088199585,-3.5376990088199585 s-3.5376990088199585,1.5843400501545943 -3.5376990088199585,3.5376990088199585 v10.613450831741286 h-10.613450831741286 c-1.9537127639467755,0 -3.5376990088199585,1.5843400501545943 -3.5376990088199585,3.5380528141013685 c0,1.9537127639467755 1.5843400501545943,3.5376990088199585 3.5376990088199585,3.5376990088199585 h10.613450831741286 v10.613450831741286 c0,1.9537127639467755 1.5843400501545943,3.5376990088199585 3.5376990088199585,3.5376990088199585 s3.5376990088199585,-1.5843400501545943 3.5376990088199585,-3.5376990088199585 v-10.613450831741286 h10.613450831741286 c1.9537127639467755,0 3.5376990088199585,-1.5843400501545943 3.5376990088199585,-3.5376990088199585 C132.80778860669892,153.66767192141015 131.2238066074891,152.083342485414 129.26973650020813,152.083342485414 z" id="svg_23" class=""/><path d="M185.774923809833,144.90850395538092 l-14.370862920316938,8.29673384906771 v-30.72303541653064 c0,-3.7980996959378186 -1.2560087490059861,-7.567187358800008 -3.5380528141013685,-10.613450831741286 l-17.689202654662612,-23.585013864081134 v-10.043116718108143 c4.117585865051172,-1.4605082016610451 7.075751822921326,-5.392700099253306 7.075751822921326,-10.00525955299726 V51.96140112028502 C157.25255370562058,46.109107960479946 152.49139957173725,41.34795028854373 146.63910110485295,41.34795028854373 H82.95732585342896 C77.10502561751827,41.34795028854373 72.34351767835346,46.109107960479946 72.34351767835346,51.96140112028502 v16.274335334303476 c0,4.6118518431811335 2.958165957870154,8.544751351336215 7.075751822921326,10.00525955299726 v10.043116718108143 l-17.690617875788252,23.586429085206774 c-2.280628843969742,3.0448482518156372 -3.5362837876943174,6.813582109396415 -3.5362837876943174,10.611681805334234 v68.51793079788709 c0,9.754057803196062 7.935498656747958,17.689202654662612 17.689202654662612,17.689202654662612 h56.857216333171806 c7.932668214496678,13.297063891237173 25.03773834955115,17.74687291553246 38.44589709915111,10.00525955299726 L214.07828136874696,193.92930833891648 c13.428679455921744,-7.754704157947379 18.218849160933587,-25.041984012928076 10.358357223844576,-38.661718320811296 C216.61611957619618,141.72179393793112 199.32318945087138,137.08552953033268 185.774923809833,144.90850395538092 zM132.32058898299985,180.38634977709927 H65.26777293153776 V128.37980031400764 h99.06052552089857 V157.289951620804 l-21.447322353801088,12.383892459917611 C138.40922053273408,172.25696582613858 134.79475462298015,175.93406411583413 132.32058898299985,180.38634977709927 zM79.41926596322196,51.96140112028502 c0,-1.9508823216954947 1.5871704924058756,-3.5376990088199585 3.5376990088199585,-3.5376990088199585 h63.68176640629195 c1.9508823216954947,0 3.5380528141013685,1.5871704924058756 3.5380528141013685,3.5376990088199585 v16.274335334303476 c0,1.9508823216954947 -1.5871704924058756,3.5376990088199585 -3.5380528141013685,3.5376990088199585 H82.95732585342896 c-1.9508823216954947,0 -3.5376990088199585,-1.5871704924058756 -3.5376990088199585,-3.5376990088199585 C79.41926596322196,68.23573539317263 79.41926596322196,51.96140112028502 79.41926596322196,51.96140112028502 zM85.78741076137584,91.5858214889816 c0.45923925527035775,-0.6120831368395367 0.7076105628202737,-1.357197059489285 0.7076105628202737,-2.122831688460821 v-10.613450831741286 h56.60601458337061 v7.075751822921326 h-31.84070630050527 c-1.9537127639467755,0 -3.5376990088199585,1.5843400501545943 -3.5376990088199585,3.5376990088199585 c0,1.9537127639467755 1.5843400501545943,3.5376990088199585 3.5376990088199585,3.5376990088199585 h33.60973270755595 l17.333982152126833,23.11126859227296 c1.1328845110752581,1.5125175780283349 1.8366032158000203,3.322231592441185 2.0492401899275126,5.1917386994123484 H65.3431263803725 c0.21228316884608248,-1.8695071069711626 0.9160018735708452,-3.678867316102603 2.047824968801872,-5.189969673005297 L85.78741076137584,91.5858214889816 zM65.26777293153776,191.00016149022758 v-3.573079536960972 h64.27757450018662 c-1.121916547351544,4.587085473482424 -1.114486636441931,9.486581010449997 0.17018034035827595,14.186884173983666 H75.88157049245484 C70.02927733264974,201.61360524586325 65.26777293153776,196.85243695976862 65.26777293153776,191.00016149022758 zM167.64699199206342,212.56670914775827 c-10.153150160626696,5.8629073182473785 -23.127189829936416,2.3956155604280363 -28.993989006279303,-7.764610705826864 c-5.89474979357429,-10.258230329205507 -2.322377867176138,-23.173538321801143 7.766733537515325,-29.001065111907504 l19.203489259098,-11.087549908830868 l21.227255468763982,36.76567581773437 L167.64699199206342,212.56670914775827 zM210.54022855464552,187.80174759406873 l-17.561832753354963,10.13970555993311 l-21.227609274045392,-36.76638342829719 l17.56218655863637,-10.13899794937029 c10.15987246097349,-5.865383955217248 23.129312661624876,-2.392077507613935 28.996111837967764,7.7685025639223735 C224.20170480962952,169.01646325370314 220.6183684575605,181.98201159625904 210.54022855464552,187.80174759406873 z" id="svg_24" class=""/></g></g></svg>