<svg id="Capa_1" data-name="Capa 1" xmlns="http://www.w3.org/2000/svg" viewBox="0 0 243 243"><defs><style>.cls-1{fill:#fff;}</style></defs><title>icon</title><path class="cls-1" d="M207.91,86.41a121.5,121.5,0,1,0,121.5,121.5A121.5,121.5,0,0,0,207.91,86.41Zm45,48.7a34,34,0,1,1-13.27,65.4A42.16,42.16,0,0,0,235,140.2,33.8,33.8,0,0,1,252.88,135.11Zm-45,0a37.51,37.51,0,1,1-37.51,37.51A37.51,37.51,0,0,1,207.91,135.11Zm-44.9,0a33.88,33.88,0,0,1,17.87,5.06,42.17,42.17,0,0,0-4.65,60.36A34,34,0,1,1,163,135.11ZM107.19,237.34c0-16.54,25-29.94,55.82-29.94a95.13,95.13,0,0,1,27.48,3.89c-28.43,4.25-48.83,18.74-48.83,36.45,0,6.86,3.08,13.24,8.49,18.73C125.52,263.35,107.19,251.5,107.19,237.34Zm100.72,43.38c-34,0-61.5-14.77-61.5-33s27.54-33,61.5-33,61.51,14.76,61.51,33S241.88,280.72,207.91,280.72Zm57.76-14.24c5.41-5.5,8.49-11.87,8.49-18.74,0-17.7-20.37-32.18-48.78-36.45a95.27,95.27,0,0,1,27.5-3.89c30.83,0,55.82,13.4,55.82,29.94C308.7,251.51,290.33,263.37,265.67,266.48Z" transform="translate(-86.41 -86.41)"/></svg>