<svg xmlns="http://www.w3.org/2000/svg" xmlns:xlink="http://www.w3.org/1999/xlink" version="1.1" style="" xml:space="preserve" width="64" height="64"><rect id="backgroundrect" width="100%" height="100%" x="0" y="0" fill="none" stroke="none" class="" style=""/>

















<g class="currentLayer" style=""><title>Layer 1</title><g id="svg_3">
</g><g id="svg_4">
</g><g id="svg_5">
</g><g id="svg_6">
</g><g id="svg_7">
</g><g id="svg_8">
</g><g id="svg_9">
</g><g id="svg_10">
</g><g id="svg_11">
</g><g id="svg_12">
</g><g id="svg_13">
</g><g id="svg_14">
</g><g id="svg_15">
</g><g id="svg_16">
</g><g id="svg_17">
</g><g class=""><path style="fill:#56B48C;" d="M31.744508393225694,1.3363566704011731 C14.948869290244172,1.3363566704011731 1.3333346278192835,14.950420310804361 1.3333346278192835,31.747530435807576 c0,16.794168080959828 13.615534662424883,30.40970274338472 30.411173765406406,30.40970274338472 c16.79490359197068,0 30.410438254395565,-13.615534662424883 30.410438254395565,-30.40970274338472 C62.15494664762125,14.950420310804361 48.53941198519638,1.3363566704011731 31.744508393225694,1.3363566704011731 z" id="svg_1" class=""/><path style="fill:#FFFFFF;" d="M35.50603428785527,19.162201529239525 c-0.38320123665022243,-0.49070842940206016 -0.891929685817984,-0.7362465218558011 -1.5263079326717586,-0.7362465218558011 c-0.5627885084648657,0 -0.9458671599466137,0.10775236308878647 -1.1492359544452448,0.32325708926635915 c-0.2037365500040536,0.21550472617757294 -0.6406300904459576,0.7900614108159575 -1.3108032064941861,1.7239152242521036 c-0.6705408715536526,0.9337312282676726 -1.4396402185605277,1.7777301132122596 -2.307420626189102,2.5318740696652893 c-0.8681481631339978,0.7541439564530292 -2.0263328348778553,1.4724930437116037 -3.4746766004000476,2.1548020914387735 c-0.9696486826306013,0.4550361453760807 -1.6461962274394868,0.8259788651788865 -2.02915229375276,1.1133185000823163 c-0.38320123665022243,0.28733963490343 -0.5746792698068592,0.7362465218558011 -0.5746792698068592,1.3467206608571156 c0,0.5268710541019376 0.19442007720001692,0.9907333316081566 0.5836279871054737,1.3917094176871319 c0.3888401544000344,0.4012212564159242 0.8350501676459734,0.6015254217027005 1.3377719435585016,0.6015254217027005 c1.0532517675299773,0 3.1004240810484403,-1.1671333890424718 6.141271770218436,-3.5015227522958883 V42.45228027281354 c0,0.9578805064570813 0.2213888142643324,1.6821136818024154 0.6644116131299438,2.172822111204475 c0.4427776285286647,0.49070842940206016 1.029347659677517,0.7362465218558011 1.759710093446559,0.7362465218558011 c1.6399443838473047,0 2.460039160939431,-1.2030508434054004 2.460039160939431,-3.6092751153846754 V21.191353822992298 C36.08071355766212,20.32945750345047 35.889112939337025,19.65327771414701 35.50603428785527,19.162201529239525 z" id="svg_2" class=""/></g></g></svg>